<svg width="79" height="23" viewBox="0 0 79 23" fill="none" xmlns="http://www.w3.org/2000/svg">
<path d="M77.4077 13.3796C78.236 13.3796 78.9074 12.7082 78.9074 11.8799C78.9074 11.0516 78.236 10.3802 77.4077 10.3802L77.4077 11.8799L77.4077 13.3796ZM0.639549 10.8194C0.0538711 11.4051 0.0538712 12.3547 0.639549 12.9404L10.1837 22.4845C10.7694 23.0702 11.719 23.0702 12.3047 22.4845C12.8903 21.8989 12.8903 20.9493 12.3047 20.3636L3.82095 11.8799L12.3047 3.39617C12.8903 2.81049 12.8903 1.86092 12.3047 1.27524C11.719 0.689558 10.7694 0.689558 10.1837 1.27524L0.639549 10.8194ZM77.4077 11.8799L77.4077 10.3802L1.70001 10.3802L1.70001 11.8799L1.70001 13.3796L77.4077 13.3796L77.4077 11.8799Z" fill="#1A18BB"/>
</svg>
