<svg width="13" height="9" viewBox="0 0 13 9" fill="none" xmlns="http://www.w3.org/2000/svg">
<path d="M0.952393 0.897217C1.10093 0.897304 1.25326 0.968006 1.37231 1.11694L3.59888 3.90405L3.5979 3.90601L3.63013 3.94605C3.87144 4.24816 3.87137 4.74251 3.63013 5.04468L1.37134 7.8728C1.2535 8.02021 1.09975 8.09155 0.951416 8.09155C0.802977 8.09154 0.650532 8.02175 0.531494 7.8728C0.290178 7.57068 0.290235 7.07633 0.531494 6.77417L2.32056 4.53491L2.35278 4.49487L2.32056 4.45483L0.531494 2.21558C0.29015 1.91342 0.29015 1.4191 0.531494 1.11694C0.65065 0.967772 0.803694 0.897217 0.952393 0.897217Z" fill="white" stroke="white" stroke-width="0.12877"/>
<path d="M3.64722 0.897339C3.79576 0.897427 3.94808 0.968128 4.06714 1.11707L6.31226 3.92761L6.31226 3.92859L6.32593 3.94617C6.56727 4.24832 6.56727 4.74265 6.32593 5.0448L4.06714 7.87195C3.94789 8.01976 3.7946 8.09167 3.64624 8.09167C3.4978 8.09166 3.34536 8.02187 3.22632 7.87292C2.985 7.57081 2.98506 7.07646 3.22632 6.77429L5.01538 4.53503L5.04761 4.495L5.01538 4.45496L3.22632 2.2157C2.98497 1.91354 2.98497 1.41922 3.22632 1.11707C3.34547 0.967894 3.49852 0.897339 3.64722 0.897339Z" fill="white" stroke="white" stroke-width="0.12877"/>
<path d="M6.65039 0.897339C6.79893 0.897427 6.95125 0.968128 7.07031 1.11707L9.29687 3.90417L9.2959 3.90613L9.32812 3.94617C9.56944 4.24828 9.56937 4.74263 9.32812 5.0448L7.06934 7.87292C6.9515 8.02034 6.79774 8.09167 6.64941 8.09167C6.50097 8.09166 6.34853 8.02187 6.22949 7.87292C5.98818 7.57081 5.98823 7.07646 6.22949 6.77429L8.01855 4.53503L8.05078 4.495L8.01855 4.45496L6.22949 2.2157C5.98815 1.91354 5.98815 1.41922 6.22949 1.11707C6.34865 0.967894 6.50169 0.897339 6.65039 0.897339Z" fill="white" stroke="white" stroke-width="0.12877"/>
<path d="M9.3457 0.897461C9.49425 0.897549 9.64657 0.96825 9.76562 1.11719L12.0107 3.92773L12.0107 3.92871L12.0244 3.94629C12.2658 4.24844 12.2658 4.74277 12.0244 5.04492L9.76562 7.87207C9.64638 8.01988 9.49309 8.0918 9.34473 8.0918C9.19629 8.09178 9.04384 8.022 8.9248 7.87305C8.68349 7.57093 8.68355 7.07658 8.9248 6.77441L10.7139 4.53516L10.7461 4.49512L10.7139 4.45508L8.9248 2.21582C8.68346 1.91367 8.68346 1.41934 8.9248 1.11719C9.04396 0.968016 9.197 0.897461 9.3457 0.897461Z" fill="white" stroke="white" stroke-width="0.12877"/>
</svg>
