<svg width="178" height="55" viewBox="0 0 178 55" fill="none" xmlns="http://www.w3.org/2000/svg">
<g clip-path="url(#clip0_1_170)">
<path d="M27.016 0.0127434L27.0287 0C12.0989 0 0 12.0989 0 27.0287C0 41.9585 10.5788 52.4718 24.1578 53.9009C20.4095 52.6958 17.5768 50.7551 16.8049 47.1633C16.6738 46.5334 16.4517 45.9181 16.3061 45.2882C15.9529 43.7408 15.2975 42.3263 14.0651 41.1193C13.7629 40.8171 13.5153 40.4639 13.2258 40.149C11.1942 37.9462 10.6699 35.5086 11.693 32.8343C12.0462 31.9167 12.3484 30.9992 12.676 30.0817C13.2404 28.4833 13.3715 26.8704 12.8599 25.2574C12.1918 23.1602 12.8854 21.3506 14.3673 19.7122C15.0481 18.9513 15.9657 18.3359 16.6083 17.5622C17.4603 16.5264 18.2995 15.4395 18.862 14.2853C19.4519 13.0802 20.1473 12.0443 21.2341 11.0868C22.4393 10.0254 23.3714 8.72741 24.42 7.53499C24.6039 7.32563 24.7732 7.10171 24.9443 6.87961C25.0226 6.9051 25.0881 6.93241 25.1664 6.95789C23.8811 10.4441 22.6359 13.9322 21.3124 17.4057C18.822 23.9339 17.2891 30.5787 17.6168 37.4747C17.8262 42.0368 19.0059 46.4278 21.5891 50.4511C22.4011 51.7218 23.5298 52.8359 24.7094 53.9646C25.4704 54.0302 26.2423 54.0702 27.016 54.0702C27.7897 54.0702 28.629 54.0302 29.4281 53.9646C33.6098 50.3073 35.1426 45.6669 36.0092 40.8298C37.3072 33.5807 35.8526 26.5154 33.4933 19.5684C32.1425 15.5706 30.6096 11.6111 29.1678 7.64058C29.0895 7.41848 29.024 7.18181 28.9457 6.95971L29.064 6.90692C29.8632 7.88998 30.6369 8.88579 31.4889 9.84336C32.0387 10.4587 32.7469 10.9575 33.2985 11.5728C33.8483 12.1754 34.5037 12.7925 34.7531 13.4989C35.4995 15.5834 36.8758 17.2873 38.6853 18.7819C40.1399 19.9871 41.1757 21.4034 41.3596 23.1602C41.4251 23.7901 41.3851 24.4455 41.2158 25.0481C40.717 26.8048 40.7825 28.5343 41.3997 30.2656C41.8457 31.5108 42.2516 32.7815 42.6321 34.0413C43.1437 35.758 42.816 37.3837 41.7674 38.891C41.3341 39.5063 40.9027 40.149 40.3511 40.686C38.7527 42.2462 37.9389 44.0812 37.5075 46.0874C37.2981 47.0577 36.9832 48.0135 36.5772 48.931C35.3575 51.7091 32.6577 52.9688 29.7085 53.9392C43.3676 52.5884 54.0502 41.0665 54.0502 27.0415C54.0502 13.0165 41.9458 0.0127434 27.016 0.0127434ZM28.9694 10.2238L29.6648 12.321C30.8317 15.5597 32.0642 18.7838 33.0728 22.0606C35.1044 28.6417 35.7853 35.3138 34.3307 42.0641C33.6881 45.0534 32.614 47.9243 30.7134 50.5185C30.1891 51.2394 29.5865 51.9202 28.9184 52.5501C27.3055 54.0702 26.6119 54.032 24.9607 52.4445C24.3454 51.8547 23.781 51.2121 23.2822 50.5312C20.9629 47.3199 19.8214 43.7535 19.2844 40.0452C18.1575 32.2463 19.6521 24.7222 22.523 17.3292C23.3623 15.1665 24.7386 11.0376 25.2228 9.55573C25.2228 9.55573 26.1931 5.78004 26.9923 5.45235C26.9923 5.45235 27.7132 8.07385 28.5124 9.34637C28.5379 9.38642 28.5652 9.4374 28.5907 9.47745C28.6817 9.59578 28.7618 9.7396 28.8001 9.89616V9.93621C28.8401 10.0418 28.8784 10.1328 28.9184 10.2384L28.9712 10.2257L28.9694 10.2238Z" fill="black"/>
<path d="M27.0288 17.3894C27.0015 17.3621 26.9469 17.3621 26.9341 17.3894C26.5828 17.85 26.3115 18.1467 26.1495 18.4726C23.863 23.1803 22.7816 28.0629 23.5936 33.1639C23.8375 34.6385 24.2289 36.0985 25.3394 37.3164C26.3407 38.4123 27.7333 38.467 28.6399 37.3164C29.2753 36.519 29.8178 35.5706 30.0599 34.6385C31.5618 28.9968 30.3567 23.5863 27.8007 18.3506C27.6514 18.0539 27.382 17.8099 27.0288 17.3894Z" fill="black"/>
<path d="M61.172 53.7025V48.8928H61.527L63.4367 52.5156L65.3336 48.8928H65.6886V53.7025H65.299V49.7048L63.5859 52.9598H63.2856L61.5525 49.712V53.7025H61.1702H61.172ZM67.8896 53.7572C67.6675 53.7572 67.4672 53.7135 67.2888 53.6279C67.1159 53.5423 66.9775 53.424 66.8719 53.2729C66.7718 53.1236 66.7226 52.9543 66.7226 52.7686C66.7226 52.5229 66.7845 52.3317 66.9065 52.1952C67.0285 52.055 67.236 51.9549 67.5273 51.8948C67.8186 51.8365 68.2191 51.8056 68.7288 51.8056H68.94V51.5598C68.94 51.2558 68.8781 51.0337 68.7561 50.8972C68.6323 50.757 68.4375 50.686 68.1699 50.686C67.9697 50.686 67.7767 50.7151 67.5892 50.7752C67.4071 50.8335 67.2178 50.9281 67.023 51.0556L66.8592 50.7352C67.0321 50.6132 67.236 50.5149 67.4727 50.4421C67.7093 50.3692 67.9387 50.3328 68.1608 50.3328C68.5613 50.3328 68.8563 50.4348 69.0474 50.6405C69.2422 50.8444 69.3405 51.1593 69.3405 51.5817V53.7025H68.9455V53.1091C68.8544 53.313 68.7161 53.4732 68.5286 53.586C68.3465 53.6989 68.1335 53.7572 67.8878 53.7572H67.8896ZM67.9442 53.4222C68.139 53.4222 68.3101 53.3767 68.4557 53.2857C68.605 53.191 68.7234 53.0599 68.8107 52.8961C68.8963 52.7322 68.94 52.5465 68.94 52.3372V52.1114H68.7361C68.3265 52.1114 68.0061 52.1296 67.7749 52.1661C67.5473 52.2025 67.3889 52.2662 67.2979 52.3572C67.2069 52.4482 67.1614 52.5738 67.1614 52.7322C67.1614 52.9361 67.2324 53.1036 67.3726 53.231C67.5127 53.3585 67.7039 53.4222 67.946 53.4222H67.9442ZM70.431 53.7025V50.3929H70.8406V50.9864C70.9498 50.7679 71.1064 50.6041 71.3121 50.4948C71.5178 50.3856 71.7435 50.331 71.9948 50.331C72.7812 50.331 73.1744 50.7588 73.1744 51.6144V53.7025H72.7576V51.649C72.7576 51.3213 72.692 51.081 72.5591 50.9263C72.428 50.7716 72.2187 50.6933 71.9311 50.6933C71.6034 50.6933 71.3394 50.7952 71.1391 51.0009C70.9443 51.2012 70.846 51.4724 70.846 51.8129V53.7025H70.4292H70.431ZM75.4974 53.7572C75.1296 53.7572 74.8511 53.657 74.6654 53.4568C74.4834 53.2565 74.3924 52.9707 74.3924 52.5975V50.7279H73.737V50.3929H74.3924V49.3698H74.8092V50.3929H75.8797V50.7279H74.8092V52.5429C74.8092 52.8214 74.8657 53.0326 74.9804 53.1782C75.0932 53.3239 75.2826 53.3967 75.5465 53.3967C75.6248 53.3967 75.6995 53.3876 75.7723 53.3694C75.8451 53.3512 75.9088 53.3312 75.9634 53.3075L76.0454 53.6352C75.9962 53.6661 75.9161 53.6934 75.8069 53.7171C75.6976 53.7444 75.5957 53.7572 75.4992 53.7572H75.4974ZM77.9405 53.7572C77.4307 53.7572 77.0284 53.6079 76.7335 53.3075C76.4422 53.0035 76.2966 52.5866 76.2966 52.0586C76.2966 51.7182 76.3621 51.4178 76.495 51.1575C76.6279 50.8972 76.8081 50.6951 77.0412 50.5495C77.2778 50.4038 77.5491 50.331 77.8531 50.331C78.2936 50.331 78.6377 50.4748 78.8835 50.7606C79.1293 51.0465 79.2512 51.4415 79.2512 51.9403V52.1315H76.7062C76.7208 52.5411 76.8318 52.8578 77.0412 53.0799C77.2542 53.2984 77.5509 53.4076 77.9277 53.4076C78.1316 53.4076 78.3228 53.3767 78.5012 53.313C78.6832 53.2492 78.8598 53.1418 79.0328 52.9926L79.1966 53.3057C79.051 53.4459 78.8653 53.5587 78.6377 53.6406C78.4102 53.7171 78.179 53.7572 77.9423 53.7572H77.9405ZM77.8586 50.666C77.5127 50.666 77.2414 50.7752 77.0466 50.9937C76.8555 51.2067 76.7444 51.4852 76.7116 51.8256H78.8744C78.8653 51.4615 78.7743 51.1775 78.6013 50.9736C78.4284 50.7697 78.1808 50.666 77.8586 50.666ZM80.0978 53.7025V50.3929H80.5074V50.9864C80.6166 50.7679 80.7732 50.6041 80.9789 50.4948C81.1828 50.3856 81.4103 50.331 81.6615 50.331C82.448 50.331 82.8412 50.7588 82.8412 51.6144V53.7025H82.4243V51.649C82.4243 51.3213 82.3588 51.081 82.2259 50.9263C82.0948 50.7716 81.8855 50.6933 81.5978 50.6933C81.2701 50.6933 81.0062 50.7952 80.8059 51.0009C80.6111 51.2012 80.5128 51.4724 80.5128 51.8129V53.7025H80.0959H80.0978ZM83.9153 53.7025V48.8928H84.3322V50.9664C84.4451 50.757 84.6034 50.6004 84.8037 50.4948C85.0076 50.3856 85.2333 50.331 85.4791 50.331C86.2656 50.331 86.6588 50.7588 86.6588 51.6144V53.7025H86.2419V51.649C86.2419 51.3213 86.1764 51.081 86.0435 50.9263C85.9124 50.7716 85.703 50.6933 85.4154 50.6933C85.0877 50.6933 84.8237 50.7952 84.6235 51.0009C84.4287 51.2012 84.3304 51.4724 84.3304 51.8129V53.7025H83.9135H83.9153ZM88.7578 53.7572C88.5339 53.7572 88.3354 53.7135 88.157 53.6279C87.9841 53.5423 87.8457 53.424 87.7401 53.2729C87.64 53.1236 87.5909 52.9543 87.5909 52.7686C87.5909 52.5229 87.6528 52.3317 87.7747 52.1952C87.8985 52.055 88.1042 51.9549 88.3955 51.8948C88.6868 51.8365 89.0873 51.8056 89.597 51.8056H89.8082V51.5598C89.8082 51.2558 89.7463 51.0337 89.6243 50.8972C89.5024 50.757 89.3058 50.686 89.0382 50.686C88.8379 50.686 88.6449 50.7151 88.4592 50.7752C88.2772 50.8335 88.0879 50.9281 87.8931 51.0556L87.7292 50.7352C87.9022 50.6132 88.1061 50.5149 88.3427 50.4421C88.5794 50.3692 88.8088 50.3328 89.0309 50.3328C89.4314 50.3328 89.7263 50.4348 89.9174 50.6405C90.1122 50.8444 90.2105 51.1593 90.2105 51.5817V53.7025H89.8155V53.1091C89.7245 53.313 89.5861 53.4732 89.3986 53.586C89.2166 53.6989 89.0036 53.7572 88.7578 53.7572ZM88.8124 53.4222C89.0072 53.4222 89.1783 53.3767 89.324 53.2857C89.4732 53.191 89.5916 53.0599 89.679 52.8961C89.7645 52.7322 89.8082 52.5465 89.8082 52.3372V52.1114H89.6043C89.1947 52.1114 88.8743 52.1296 88.6431 52.1661C88.4156 52.2025 88.2572 52.2662 88.1661 52.3572C88.0751 52.4482 88.0296 52.5738 88.0296 52.7322C88.0296 52.9361 88.1006 53.1036 88.2408 53.231C88.381 53.3585 88.5721 53.4222 88.8142 53.4222H88.8124ZM94.0336 53.7572C93.8115 53.7572 93.6112 53.7135 93.4328 53.6279C93.2599 53.5423 93.1215 53.424 93.0159 53.2729C92.9158 53.1236 92.8666 52.9543 92.8666 52.7686C92.8666 52.5229 92.9285 52.3317 93.0505 52.1952C93.1743 52.055 93.38 51.9549 93.6713 51.8948C93.9626 51.8365 94.3631 51.8056 94.8728 51.8056H95.084V51.5598C95.084 51.2558 95.0221 51.0337 94.9001 50.8972C94.7763 50.757 94.5815 50.686 94.3139 50.686C94.1137 50.686 93.9207 50.7151 93.735 50.7752C93.553 50.8335 93.3636 50.9281 93.1688 51.0556L93.005 50.7352C93.1779 50.6132 93.3818 50.5149 93.6185 50.4421C93.8552 50.3692 94.0845 50.3328 94.3066 50.3328C94.7071 50.3328 95.0021 50.4348 95.1932 50.6405C95.388 50.8444 95.4863 51.1593 95.4863 51.5817V53.7025H95.0913V53.1091C95.0002 53.313 94.8619 53.4732 94.6744 53.586C94.4923 53.6989 94.2793 53.7572 94.0336 53.7572ZM94.0882 53.4222C94.283 53.4222 94.4541 53.3767 94.5997 53.2857C94.749 53.191 94.8674 53.0599 94.9547 52.8961C95.0403 52.7322 95.084 52.5465 95.084 52.3372V52.1114H94.8801C94.4705 52.1114 94.1501 52.1296 93.9189 52.1661C93.6913 52.2025 93.5329 52.2662 93.4419 52.3572C93.3509 52.4482 93.3054 52.5738 93.3054 52.7322C93.3054 52.9361 93.3764 53.1036 93.5165 53.231C93.6567 53.3585 93.8479 53.4222 94.09 53.4222H94.0882ZM99.3658 53.7572C99.12 53.7572 98.8833 53.7207 98.6558 53.6479C98.4337 53.5751 98.248 53.4713 98.1024 53.3348L98.2516 53.0271C98.4191 53.1637 98.5993 53.2638 98.7905 53.3275C98.9816 53.3858 99.1764 53.4167 99.3767 53.4167C99.6589 53.4167 99.87 53.3676 100.01 53.2674C100.156 53.1637 100.229 53.0199 100.229 52.8378C100.229 52.6976 100.181 52.5848 100.085 52.5028C99.9902 52.4209 99.8391 52.3554 99.6352 52.3044L99.0417 52.1679C98.4828 52.0404 98.2025 51.751 98.2025 51.3013C98.2025 51.01 98.3172 50.7752 98.5429 50.5986C98.7705 50.422 99.0708 50.3328 99.444 50.3328C99.6716 50.3328 99.8846 50.3711 100.085 50.4493C100.285 50.5222 100.449 50.6296 100.576 50.7697L100.413 51.0774C100.281 50.9463 100.13 50.848 99.9629 50.7843C99.7954 50.7151 99.6188 50.6824 99.4368 50.6824C99.1728 50.6824 98.9689 50.737 98.8233 50.8462C98.6831 50.9554 98.6121 51.1029 98.6121 51.2904C98.6121 51.4306 98.6558 51.5453 98.7413 51.6308C98.8269 51.7164 98.9689 51.7838 99.1637 51.8293L99.7572 51.9658C100.052 52.035 100.274 52.1369 100.42 52.2735C100.565 52.4045 100.638 52.5848 100.638 52.8123C100.638 53.1072 100.522 53.3403 100.291 53.5078C100.058 53.6771 99.7499 53.7608 99.3621 53.7608L99.3658 53.7572ZM102.712 53.7572C101.925 53.7572 101.532 53.3293 101.532 52.4737V50.3929H101.949V52.4537C101.949 52.7759 102.015 53.0162 102.147 53.171C102.279 53.3257 102.486 53.4022 102.768 53.4022C103.072 53.4022 103.322 53.3002 103.513 53.0945C103.708 52.8906 103.806 52.6175 103.806 52.2753V50.3929H104.223V53.7025H103.82V53.1163C103.711 53.3257 103.558 53.4841 103.364 53.5933C103.172 53.7025 102.956 53.7572 102.715 53.7572H102.712ZM106.34 53.7572C106.118 53.7572 105.918 53.7135 105.739 53.6279C105.566 53.5423 105.428 53.424 105.322 53.2729C105.222 53.1236 105.173 52.9543 105.173 52.7686C105.173 52.5229 105.235 52.3317 105.357 52.1952C105.481 52.055 105.686 51.9549 105.978 51.8948C106.269 51.8365 106.67 51.8056 107.179 51.8056H107.39V51.5598C107.39 51.2558 107.329 51.0337 107.207 50.8972C107.083 50.757 106.888 50.686 106.62 50.686C106.42 50.686 106.227 50.7151 106.041 50.7752C105.859 50.8335 105.67 50.9281 105.475 51.0556L105.311 50.7352C105.484 50.6132 105.688 50.5149 105.925 50.4421C106.162 50.3692 106.391 50.3328 106.613 50.3328C107.014 50.3328 107.309 50.4348 107.5 50.6405C107.694 50.8444 107.793 51.1593 107.793 51.5817V53.7025H107.398V53.1091C107.307 53.313 107.168 53.4732 106.981 53.586C106.799 53.6989 106.586 53.7572 106.34 53.7572ZM106.395 53.4222C106.589 53.4222 106.761 53.3767 106.906 53.2857C107.055 53.191 107.174 53.0599 107.261 52.8961C107.347 52.7322 107.39 52.5465 107.39 52.3372V52.1114H107.187C106.777 52.1114 106.457 52.1296 106.225 52.1661C105.998 52.2025 105.839 52.2662 105.748 52.3572C105.657 52.4482 105.612 52.5738 105.612 52.7322C105.612 52.9361 105.683 53.1036 105.823 53.231C105.963 53.3585 106.154 53.4222 106.396 53.4222H106.395ZM111.945 53.7572C111.623 53.7572 111.345 53.6862 111.113 53.546C110.882 53.4003 110.702 53.1983 110.574 52.9379C110.451 52.674 110.391 52.3699 110.391 52.0241C110.391 51.5016 110.527 51.0883 110.8 50.7898C111.079 50.4857 111.459 50.3328 111.947 50.3328C112.147 50.3328 112.346 50.3711 112.541 50.4493C112.735 50.5276 112.899 50.6332 113.032 50.7697L112.868 51.0829C112.728 50.9463 112.577 50.848 112.419 50.7898C112.26 50.726 112.107 50.6951 111.962 50.6951C111.594 50.6951 111.31 50.8116 111.11 51.0428C110.915 51.2758 110.817 51.6053 110.817 52.0332C110.817 52.461 110.915 52.7978 111.11 53.0435C111.31 53.2838 111.594 53.4058 111.962 53.4058C112.107 53.4058 112.26 53.3767 112.419 53.3166C112.577 53.2529 112.728 53.1528 112.868 53.0162L113.032 53.3293C112.901 53.4604 112.734 53.566 112.533 53.6425C112.339 53.7189 112.142 53.759 111.947 53.759L111.945 53.7572ZM113.726 53.7025V48.8928H114.143V50.9664C114.257 50.757 114.414 50.6004 114.614 50.4948C114.818 50.3856 115.044 50.331 115.29 50.331C116.076 50.331 116.469 50.7588 116.469 51.6144V53.7025H116.052V51.649C116.052 51.3213 115.987 51.081 115.854 50.9263C115.723 50.7716 115.513 50.6933 115.226 50.6933C114.898 50.6933 114.634 50.7952 114.434 51.0009C114.239 51.2012 114.141 51.4724 114.141 51.8129V53.7025H113.724H113.726ZM118.566 53.7572C118.344 53.7572 118.144 53.7135 117.966 53.6279C117.793 53.5423 117.654 53.424 117.549 53.2729C117.449 53.1236 117.399 52.9543 117.399 52.7686C117.399 52.5229 117.461 52.3317 117.583 52.1952C117.705 52.055 117.913 51.9549 118.204 51.8948C118.495 51.8365 118.896 51.8056 119.406 51.8056H119.617V51.5598C119.617 51.2558 119.555 51.0337 119.433 50.8972C119.311 50.757 119.114 50.686 118.847 50.686C118.647 50.686 118.454 50.7151 118.266 50.7752C118.084 50.8335 117.895 50.9281 117.7 51.0556L117.536 50.7352C117.709 50.6132 117.913 50.5149 118.15 50.4421C118.386 50.3692 118.616 50.3328 118.838 50.3328C119.238 50.3328 119.533 50.4348 119.724 50.6405C119.919 50.8444 120.017 51.1593 120.017 51.5817V53.7025H119.622V53.1091C119.531 53.313 119.393 53.4732 119.205 53.586C119.023 53.6989 118.81 53.7572 118.565 53.7572H118.566ZM118.621 53.4222C118.816 53.4222 118.987 53.3767 119.133 53.2857C119.282 53.191 119.4 53.0599 119.488 52.8961C119.573 52.7322 119.617 52.5465 119.617 52.3372V52.1114H119.413C119.003 52.1114 118.683 52.1296 118.452 52.1661C118.224 52.2025 118.066 52.2662 117.975 52.3572C117.884 52.4482 117.838 52.5738 117.838 52.7322C117.838 52.9361 117.909 53.1036 118.049 53.231C118.19 53.3585 118.381 53.4222 118.623 53.4222H118.621ZM121.121 53.7025V50.3929H121.53V50.9736C121.734 50.5458 122.084 50.3328 122.575 50.3328C123.103 50.3328 123.436 50.5622 123.578 51.0228C123.673 50.8098 123.819 50.6405 124.015 50.5185C124.21 50.3947 124.437 50.3346 124.698 50.3346C125.43 50.3346 125.796 50.7625 125.796 51.6181V53.7062H125.379V51.6527C125.379 51.325 125.319 51.0847 125.2 50.9299C125.087 50.7752 124.893 50.6969 124.621 50.6969C124.33 50.6969 124.099 50.7989 123.926 51.0046C123.753 51.2048 123.667 51.4779 123.667 51.8238V53.7062H123.251V51.6527C123.251 51.325 123.192 51.0847 123.074 50.9299C122.959 50.7752 122.77 50.6969 122.5 50.6969C122.206 50.6969 121.971 50.7989 121.798 51.0046C121.625 51.2048 121.539 51.4779 121.539 51.8238V53.7062H121.122L121.121 53.7025ZM127.907 53.7572C127.685 53.7572 127.485 53.7135 127.307 53.6279C127.134 53.5423 126.995 53.424 126.89 53.2729C126.79 53.1236 126.74 52.9543 126.74 52.7686C126.74 52.5229 126.802 52.3317 126.924 52.1952C127.048 52.055 127.254 51.9549 127.545 51.8948C127.836 51.8365 128.237 51.8056 128.747 51.8056H128.958V51.5598C128.958 51.2558 128.896 51.0337 128.774 50.8972C128.652 50.757 128.455 50.686 128.188 50.686C127.987 50.686 127.794 50.7151 127.607 50.7752C127.425 50.8335 127.236 50.9281 127.041 51.0556L126.877 50.7352C127.05 50.6132 127.254 50.5149 127.49 50.4421C127.727 50.3692 127.956 50.3328 128.179 50.3328C128.579 50.3328 128.874 50.4348 129.065 50.6405C129.26 50.8444 129.358 51.1593 129.358 51.5817V53.7025H128.963V53.1091C128.872 53.313 128.734 53.4732 128.546 53.586C128.364 53.6989 128.151 53.7572 127.906 53.7572H127.907ZM127.962 53.4222C128.157 53.4222 128.328 53.3767 128.474 53.2857C128.623 53.191 128.741 53.0599 128.828 52.8961C128.914 52.7322 128.958 52.5465 128.958 52.3372V52.1114H128.754C128.344 52.1114 128.024 52.1296 127.793 52.1661C127.565 52.2025 127.407 52.2662 127.316 52.3572C127.225 52.4482 127.179 52.5738 127.179 52.7322C127.179 52.9361 127.25 53.1036 127.39 53.231C127.53 53.3585 127.722 53.4222 127.964 53.4222H127.962ZM133.24 53.7572C132.994 53.7572 132.757 53.7207 132.53 53.6479C132.307 53.5751 132.122 53.4713 131.976 53.3348L132.125 53.0271C132.293 53.1637 132.473 53.2638 132.664 53.3275C132.855 53.3858 133.05 53.4167 133.25 53.4167C133.533 53.4167 133.744 53.3676 133.886 53.2674C134.031 53.1637 134.104 53.0199 134.104 52.8378C134.104 52.6976 134.057 52.5848 133.96 52.5028C133.866 52.4209 133.715 52.3554 133.511 52.3044L132.917 52.1679C132.358 52.0404 132.078 51.751 132.078 51.3013C132.078 51.01 132.191 50.7752 132.418 50.5986C132.646 50.422 132.946 50.3328 133.32 50.3328C133.547 50.3328 133.76 50.3711 133.96 50.4493C134.161 50.5222 134.325 50.6296 134.452 50.7697L134.288 51.0774C134.157 50.9463 134.006 50.848 133.838 50.7843C133.669 50.7151 133.494 50.6824 133.312 50.6824C133.048 50.6824 132.844 50.737 132.699 50.8462C132.559 50.9554 132.488 51.1029 132.488 51.2904C132.488 51.4306 132.531 51.5453 132.617 51.6308C132.702 51.7164 132.844 51.7838 133.039 51.8293L133.633 51.9658C133.928 52.035 134.15 52.1369 134.295 52.2735C134.441 52.4045 134.514 52.5848 134.514 52.8123C134.514 53.1072 134.397 53.3403 134.166 53.5078C133.935 53.6771 133.625 53.7608 133.238 53.7608L133.24 53.7572ZM136.859 53.7572C136.349 53.7572 135.947 53.6079 135.652 53.3075C135.36 53.0035 135.215 52.5866 135.215 52.0586C135.215 51.7182 135.28 51.4178 135.413 51.1575C135.544 50.899 135.726 50.6951 135.959 50.5495C136.196 50.4038 136.467 50.331 136.771 50.331C137.212 50.331 137.556 50.4748 137.802 50.7606C138.047 51.0465 138.169 51.4415 138.169 51.9403V52.1315H135.624C135.639 52.5411 135.75 52.8578 135.959 53.0799C136.172 53.2984 136.469 53.4076 136.846 53.4076C137.05 53.4076 137.241 53.3767 137.419 53.313C137.601 53.2492 137.778 53.1418 137.951 52.9926L138.115 53.3057C137.969 53.4459 137.783 53.5587 137.556 53.6406C137.328 53.7171 137.097 53.7572 136.86 53.7572H136.859ZM136.777 50.666C136.431 50.666 136.16 50.7752 135.965 50.9937C135.774 51.2067 135.663 51.4852 135.63 51.8256H137.793C137.783 51.4615 137.692 51.1775 137.52 50.9736C137.347 50.7697 137.099 50.666 136.777 50.666ZM139.031 53.7025V50.3929H139.44V50.9736C139.644 50.5458 139.994 50.3328 140.483 50.3328C141.011 50.3328 141.344 50.5622 141.486 51.0228C141.581 50.8098 141.727 50.6405 141.923 50.5185C142.118 50.3947 142.346 50.3346 142.606 50.3346C143.338 50.3346 143.704 50.7625 143.704 51.6181V53.7062H143.287V51.6527C143.287 51.325 143.229 51.0847 143.11 50.9299C142.996 50.7752 142.803 50.6969 142.529 50.6969C142.238 50.6969 142.007 50.7989 141.834 51.0046C141.661 51.2048 141.576 51.4779 141.576 51.8238V53.7062H141.159V51.6527C141.159 51.325 141.099 51.0847 140.98 50.9299C140.867 50.7752 140.676 50.6969 140.407 50.6969C140.112 50.6969 139.877 50.7989 139.704 51.0046C139.531 51.2048 139.446 51.4779 139.446 51.8238V53.7062H139.029L139.031 53.7025ZM144.794 54.9314V50.3947H145.211V51.0155C145.311 50.8062 145.46 50.6405 145.661 50.5167C145.865 50.3929 146.101 50.3328 146.371 50.3328C146.666 50.3328 146.924 50.4038 147.143 50.544C147.365 50.6842 147.536 50.8826 147.654 51.1375C147.776 51.3923 147.838 51.6945 147.838 52.0441C147.838 52.3936 147.776 52.6995 147.654 52.958C147.536 53.2128 147.365 53.4113 147.143 53.5514C146.924 53.688 146.667 53.7553 146.371 53.7553C146.103 53.7553 145.866 53.6971 145.661 53.5787C145.46 53.4604 145.311 53.2966 145.211 53.0872V54.9296H144.794V54.9314ZM146.309 53.4094C146.646 53.4094 146.913 53.2911 147.113 53.0544C147.314 52.8141 147.414 52.4774 147.414 52.0441C147.414 51.6108 147.314 51.2777 147.113 51.041C146.913 50.8043 146.646 50.686 146.309 50.686C145.972 50.686 145.704 50.8043 145.504 51.041C145.304 51.2777 145.204 51.6126 145.204 52.0441C145.204 52.4755 145.304 52.8123 145.504 53.0544C145.704 53.2911 145.972 53.4094 146.309 53.4094ZM148.717 53.7025V50.3929H149.127V50.9937C149.222 50.7843 149.362 50.6259 149.544 50.5167C149.726 50.4075 149.957 50.3437 150.239 50.3255L150.41 50.311L150.45 50.6733L150.157 50.7078C149.835 50.7352 149.584 50.8426 149.407 51.0282C149.231 51.2103 149.141 51.4561 149.141 51.7655V53.7025H148.719H148.717ZM152.449 53.7572C151.94 53.7572 151.537 53.6079 151.242 53.3075C150.951 53.0035 150.805 52.5866 150.805 52.0586C150.805 51.7182 150.871 51.4178 151.004 51.1575C151.135 50.899 151.317 50.6951 151.55 50.5495C151.787 50.4038 152.058 50.331 152.362 50.331C152.802 50.331 153.147 50.4748 153.392 50.7606C153.638 51.0465 153.76 51.4415 153.76 51.9403V52.1315H151.215C151.23 52.5411 151.341 52.8578 151.55 53.0799C151.763 53.2984 152.06 53.4076 152.437 53.4076C152.64 53.4076 152.832 53.3767 153.01 53.313C153.192 53.2492 153.369 53.1418 153.542 52.9926L153.705 53.3057C153.56 53.4459 153.374 53.5587 153.147 53.6406C152.919 53.7171 152.688 53.7572 152.451 53.7572H152.449ZM152.367 50.666C152.021 50.666 151.75 50.7752 151.555 50.9937C151.364 51.2067 151.253 51.4852 151.22 51.8256H153.383C153.374 51.4615 153.283 51.1775 153.11 50.9736C152.937 50.7697 152.69 50.666 152.366 50.666H152.367ZM157.343 53.7572C157.121 53.7572 156.92 53.7135 156.742 53.6279C156.569 53.5423 156.431 53.424 156.325 53.2729C156.225 53.1236 156.176 52.9543 156.176 52.7686C156.176 52.5229 156.238 52.3317 156.36 52.1952C156.483 52.055 156.689 51.9549 156.98 51.8948C157.272 51.8365 157.672 51.8056 158.182 51.8056H158.393V51.5598C158.393 51.2558 158.331 51.0337 158.209 50.8972C158.087 50.757 157.891 50.686 157.623 50.686C157.423 50.686 157.23 50.7151 157.042 50.7752C156.86 50.8335 156.671 50.9281 156.476 51.0556L156.312 50.7352C156.485 50.6132 156.689 50.5149 156.926 50.4421C157.163 50.3692 157.392 50.3328 157.614 50.3328C158.015 50.3328 158.309 50.4348 158.501 50.6405C158.695 50.8444 158.794 51.1593 158.794 51.5817V53.7025H158.399V53.1091C158.308 53.313 158.169 53.4732 157.982 53.586C157.8 53.6989 157.587 53.7572 157.341 53.7572H157.343ZM157.397 53.4222C157.592 53.4222 157.763 53.3767 157.909 53.2857C158.058 53.191 158.177 53.0599 158.264 52.8961C158.349 52.7322 158.393 52.5465 158.393 52.3372V52.1114H158.189C157.78 52.1114 157.459 52.1296 157.228 52.1661C157.001 52.2025 156.842 52.2662 156.751 52.3572C156.66 52.4482 156.615 52.5738 156.615 52.7322C156.615 52.9361 156.686 53.1036 156.826 53.231C156.966 53.3585 157.157 53.4222 157.399 53.4222H157.397ZM161.235 53.7572C160.913 53.7572 160.634 53.6862 160.403 53.546C160.172 53.4003 159.992 53.1983 159.864 52.9379C159.742 52.674 159.68 52.3699 159.68 52.0241C159.68 51.5016 159.817 51.0883 160.09 50.7898C160.367 50.4857 160.749 50.3328 161.237 50.3328C161.437 50.3328 161.635 50.3711 161.83 50.4493C162.025 50.5258 162.189 50.6332 162.322 50.7697L162.158 51.0829C162.018 50.9463 161.867 50.848 161.708 50.7898C161.55 50.726 161.397 50.6951 161.251 50.6951C160.884 50.6951 160.598 50.8116 160.399 51.0428C160.205 51.2758 160.106 51.6053 160.106 52.0332C160.106 52.461 160.205 52.7978 160.399 53.0435C160.6 53.2838 160.884 53.4058 161.251 53.4058C161.397 53.4058 161.55 53.3767 161.708 53.3166C161.868 53.2529 162.018 53.1528 162.158 53.0162L162.322 53.3293C162.191 53.4604 162.023 53.566 161.823 53.6425C161.628 53.7189 161.432 53.759 161.237 53.759L161.235 53.7572ZM164.39 53.7572C163.88 53.7572 163.478 53.6079 163.183 53.3075C162.892 53.0035 162.746 52.5866 162.746 52.0586C162.746 51.7182 162.812 51.4178 162.944 51.1575C163.077 50.8972 163.258 50.6951 163.491 50.5495C163.727 50.4038 163.998 50.331 164.302 50.331C164.743 50.331 165.087 50.4748 165.333 50.7606C165.579 51.0465 165.701 51.4415 165.701 51.9403V52.1315H163.156C163.17 52.5411 163.281 52.8578 163.491 53.0799C163.704 53.2984 164 53.4076 164.377 53.4076C164.581 53.4076 164.772 53.3767 164.951 53.313C165.133 53.2492 165.309 53.1418 165.482 52.9926L165.646 53.3057C165.5 53.4459 165.315 53.5587 165.087 53.6406C164.86 53.7171 164.628 53.7572 164.392 53.7572H164.39ZM164.308 50.666C163.962 50.666 163.691 50.7752 163.496 50.9937C163.305 51.2067 163.194 51.4852 163.161 51.8256H165.324C165.315 51.4615 165.224 51.1775 165.051 50.9736C164.878 50.7697 164.63 50.666 164.308 50.666ZM167.625 53.7572C167.379 53.7572 167.142 53.7207 166.915 53.6479C166.691 53.5751 166.507 53.4713 166.361 53.3348L166.511 53.0271C166.678 53.1637 166.858 53.2638 167.05 53.3275C167.241 53.3858 167.436 53.4167 167.636 53.4167C167.918 53.4167 168.129 53.3676 168.271 53.2674C168.417 53.1637 168.49 53.0199 168.49 52.8378C168.49 52.6976 168.442 52.5848 168.346 52.5028C168.251 52.4209 168.1 52.3554 167.896 52.3044L167.303 52.1679C166.744 52.0404 166.463 51.751 166.463 51.3013C166.463 51.01 166.576 50.7752 166.804 50.5986C167.031 50.422 167.332 50.3328 167.705 50.3328C167.933 50.3328 168.146 50.3711 168.346 50.4493C168.546 50.5222 168.71 50.6296 168.837 50.7697L168.673 51.0774C168.542 50.9463 168.391 50.848 168.224 50.7843C168.056 50.7151 167.88 50.6824 167.698 50.6824C167.434 50.6824 167.23 50.737 167.084 50.8462C166.944 50.9554 166.873 51.1029 166.873 51.2904C166.873 51.4306 166.917 51.5453 167.002 51.6308C167.088 51.7164 167.23 51.7838 167.425 51.8293L168.018 51.9658C168.313 52.035 168.535 52.1369 168.679 52.2735C168.825 52.4045 168.897 52.5848 168.897 52.8123C168.897 53.1072 168.781 53.3403 168.55 53.5078C168.318 53.6771 168.009 53.7608 167.621 53.7608L167.625 53.7572ZM170.829 53.7572C170.607 53.7572 170.407 53.7135 170.228 53.6279C170.055 53.5423 169.917 53.424 169.811 53.2729C169.711 53.1236 169.662 52.9543 169.662 52.7686C169.662 52.5229 169.724 52.3317 169.846 52.1952C169.97 52.055 170.175 51.9549 170.467 51.8948C170.758 51.8365 171.158 51.8056 171.668 51.8056H171.879V51.5598C171.879 51.2558 171.817 51.0337 171.695 50.8972C171.572 50.757 171.377 50.686 171.109 50.686C170.909 50.686 170.716 50.7151 170.53 50.7752C170.348 50.8335 170.159 50.9281 169.964 51.0556L169.8 50.7352C169.973 50.6132 170.177 50.5149 170.414 50.4421C170.651 50.3692 170.88 50.3328 171.102 50.3328C171.502 50.3328 171.797 50.4348 171.989 50.6405C172.183 50.8444 172.282 51.1593 172.282 51.5817V53.7025H171.887V53.1091C171.796 53.313 171.657 53.4732 171.47 53.586C171.288 53.6989 171.075 53.7572 170.829 53.7572ZM170.884 53.4222C171.078 53.4222 171.249 53.3767 171.395 53.2857C171.544 53.191 171.663 53.0599 171.75 52.8961C171.836 52.7322 171.879 52.5465 171.879 52.3372V52.1114H171.675C171.266 52.1114 170.945 52.1296 170.714 52.1661C170.487 52.2025 170.328 52.2662 170.237 52.3572C170.146 52.4482 170.101 52.5738 170.101 52.7322C170.101 52.9361 170.172 53.1036 170.312 53.231C170.452 53.3585 170.643 53.4222 170.885 53.4222H170.884Z" fill="black"/>
<path d="M74.8528 2.23374C73.9408 1.0395 72.7138 0.442383 71.1718 0.442383H61.1719V19.8233H66.7098V0.637175C67.8822 0.637175 68.8489 1.23429 69.608 2.42853C70.3671 3.62277 70.7476 5.13195 70.7476 6.95608C70.7476 8.6291 70.4054 10.0946 69.7227 11.3544C69.0382 12.6141 68.1534 13.3951 67.0684 13.6992V13.8958H71.3029C72.7574 13.8958 73.9408 13.255 74.8528 11.9733C75.7649 10.6917 76.2218 9.04236 76.2218 7.02162C76.2218 5.00088 75.7649 3.42798 74.8528 2.23374Z" fill="black"/>
<path d="M79.9338 19.8232H90.0958C90.8786 16.5008 91.2682 13.7646 91.2682 11.6146C91.2682 9.70312 90.9914 8.28678 90.438 7.36379C89.8846 6.44081 89.0326 5.98022 87.8821 5.98022H77.7183C76.9373 9.3463 76.5459 12.0825 76.5459 14.1888C76.5459 17.9463 77.6746 19.8232 79.9338 19.8232ZM83.2562 6.17502C84.0153 6.30609 84.6179 6.83767 85.064 7.77158C85.5081 8.70549 85.7321 9.95434 85.7321 11.5163C85.7321 13.6226 85.3407 16.326 84.5597 19.6266C83.7787 19.4955 83.1706 18.9694 82.7355 18.0464C82.3005 17.1234 82.0838 15.8909 82.0838 14.349C82.0838 12.2864 82.4752 9.56112 83.2562 6.1732V6.17502Z" fill="black"/>
<path d="M97.8145 6.17488C98.357 6.39152 98.732 6.77746 98.9378 7.33089C99.1435 7.88432 99.2472 8.63982 99.2472 9.59376V19.854H104.785V9.56099C104.785 8.71446 104.703 8.00811 104.541 7.44376C104.377 6.87941 104.046 6.45524 103.547 6.17306C104.503 6.26045 105.177 6.59177 105.566 7.16705C105.958 7.74232 106.152 8.55062 106.152 9.59376V19.8212H111.69V10.1144C111.69 8.85464 111.463 7.85155 111.006 7.10151C110.549 6.35147 109.68 5.97827 108.401 5.97827H92.2766V19.8212H97.8145V6.17488Z" fill="black"/>
<path d="M118.596 6.17488C119.702 7.28174 120.598 8.54698 121.283 9.96878C121.967 11.3906 122.308 12.8415 122.308 14.3179C122.308 15.6214 122.009 16.832 121.412 17.9498C120.815 19.0676 119.93 19.6264 118.758 19.6264V19.8212H124.066C125.304 19.8212 126.238 19.2514 126.868 18.1118C127.498 16.9722 127.813 15.7288 127.813 14.3816C127.813 11.3851 126.564 8.58339 124.066 5.97827H113.058V25.3264H118.596V6.17488Z" fill="black"/>
<path d="M131.852 19.8232H142.014C142.797 16.5008 143.187 13.7646 143.187 11.6146C143.187 9.70312 142.91 8.28678 142.356 7.36379C141.803 6.44081 140.951 5.98022 139.8 5.98022H129.638C128.857 9.3463 128.466 12.0825 128.466 14.1888C128.466 17.9463 129.595 19.8232 131.854 19.8232H131.852ZM135.175 6.17502C135.934 6.30609 136.536 6.83767 136.982 7.77158C137.426 8.70549 137.65 9.95434 137.65 11.5163C137.65 13.6226 137.259 16.326 136.478 19.6266C135.697 19.4955 135.089 18.9694 134.654 18.0464C134.219 17.1234 134.002 15.8909 134.002 14.349C134.002 12.2864 134.394 9.56112 135.175 6.1732V6.17502Z" fill="black"/>
<path d="M66.7098 23.062H61.1719V42.4429H66.7098V23.062Z" fill="black"/>
<path d="M73.6478 23.062H68.1099V27.4585H73.6478V23.062Z" fill="black"/>
<path d="M73.6478 28.5999H68.1099V42.4756H73.6478V28.5999Z" fill="black"/>
<path d="M91.1699 28.5997H75.0459V42.4427H80.5838V28.7945C81.1263 29.0112 81.5013 29.3971 81.7071 29.9505C81.9128 30.5039 82.0165 31.2594 82.0165 32.2134V42.4736H87.5545V32.1806C87.5545 31.3341 87.4725 30.6277 87.3105 30.0634C87.1467 29.499 86.8153 29.0749 86.3165 28.7927C87.2723 28.8801 87.9459 29.2114 88.3354 29.7867C88.7268 30.362 88.9216 31.1702 88.9216 32.2134V42.4409H94.4596V32.734C94.4596 31.4743 94.232 30.4712 93.775 29.7211C93.3181 28.9711 92.4497 28.5979 91.1699 28.5979V28.5997Z" fill="black"/>
<path d="M95.8284 28.5999V47.948H101.366V28.7965C102.473 29.9033 103.369 31.1686 104.053 32.5904C104.738 34.0122 105.078 35.4631 105.078 36.9395C105.078 38.243 104.78 39.4536 104.183 40.5714C103.585 41.6891 102.701 42.248 101.528 42.248V42.4428H106.837C108.075 42.4428 109.009 41.873 109.639 40.7334C110.268 39.5938 110.583 38.3504 110.583 37.0032C110.583 34.0067 109.335 31.205 106.837 28.5999H95.8284Z" fill="black"/>
<path d="M117.13 28.5999H111.592V42.4756H117.13V28.5999Z" fill="black"/>
<path d="M130.012 31.416C129.111 29.8194 127.878 28.8819 126.314 28.5979H119.801V28.7927C121.69 28.7927 123.156 29.499 124.197 30.9099C125.238 32.3226 125.95 33.9884 126.331 35.9108C126.711 37.8314 126.955 39.945 127.064 42.2461C125.999 42.2461 125.18 41.9967 124.605 41.496C124.03 40.9972 123.742 40.269 123.742 39.3133C123.742 37.7932 124.361 36.0346 125.599 34.0357H120.094C119.529 34.7967 119.069 35.6541 118.71 36.6099C118.352 37.5656 118.173 38.434 118.173 39.215C118.173 40.2144 118.493 41.0009 119.134 41.5761C119.775 42.1514 120.671 42.439 121.821 42.439H132.602C132.493 40.5275 132.26 38.6124 131.901 36.69C131.543 34.7675 130.913 33.0089 130.012 31.4124V31.416Z" fill="black"/>
<path d="M142.6 42.2481C141.341 42.2481 140.39 41.7001 139.751 40.6024C139.111 39.5065 138.79 38.2849 138.79 36.9377C138.79 35.4613 139.127 33.974 139.8 32.4757C140.474 30.9775 141.353 29.6868 142.438 28.5999H136.9C134.468 31.1395 133.252 33.9085 133.252 36.905C133.252 38.274 133.556 39.5265 134.164 40.6679C134.772 41.8075 135.695 42.3992 136.933 42.4429H148.138V23.062H142.6V42.2463V42.2481Z" fill="black"/>
<path d="M160.987 31.416C160.086 29.8194 158.854 28.8819 157.29 28.5979H150.776V28.7927C152.666 28.7927 154.131 29.499 155.173 30.9099C156.214 32.3226 156.926 33.9884 157.306 35.9108C157.687 37.8314 157.931 39.945 158.04 42.2461C156.975 42.2461 156.156 41.9967 155.58 41.496C155.005 40.9972 154.718 40.269 154.718 39.3133C154.718 37.7932 155.337 36.0346 156.574 34.0357H151.069C150.505 34.7967 150.043 35.6541 149.686 36.6099C149.327 37.5656 149.149 38.434 149.149 39.215C149.149 40.2144 149.469 41.0009 150.11 41.5761C150.751 42.1514 151.646 42.439 152.797 42.439H163.578C163.469 40.5275 163.236 38.6124 162.877 36.69C162.518 34.7675 161.888 33.0089 160.987 31.4124V31.416Z" fill="black"/>
<path d="M178.005 34.5928V32.0514C178.005 29.7503 176.951 28.5979 174.847 28.5979H164.619V32.572C164.663 34.5709 165.65 35.5685 167.583 35.5685H169.667C170.689 35.5685 171.41 35.7961 171.834 36.253C172.256 36.7082 172.469 37.4691 172.469 38.5323V42.2461C171.601 42.2461 170.993 42.024 170.645 41.578C170.297 41.1338 170.124 40.4001 170.124 39.3788V36.4478H164.586V39.1513C164.586 40.2162 164.83 41.03 165.32 41.5943C165.808 42.1587 166.52 42.4409 167.454 42.4409H178.007V38.6634C178.007 36.5134 176.942 35.4375 174.816 35.4375H172.861C171.883 35.4375 171.188 35.2099 170.776 34.753C170.363 34.2978 170.157 33.5478 170.157 32.5065V28.7927C171.025 28.7927 171.628 29.0366 171.965 29.5263C172.302 30.0142 172.469 30.8462 172.469 32.0186V34.5928H178.007H178.005Z" fill="black"/>
<path d="M114.294 28.2321L115.941 25.6943H114.059L113.403 28.2321H114.294Z" fill="black"/>
<path d="M57.3162 0.442383V53.7025" stroke="black" stroke-width="0.182049" stroke-linecap="round" stroke-linejoin="round"/>
<path d="M174.812 48.0686C174.812 48.0686 176.196 49.1937 174.739 50.1494C172.837 51.3983 173.665 53.7576 175.402 53.7576C177.139 53.7576 177.927 51.9044 177.444 50.4061C177.069 49.2392 176.316 48.5692 174.812 48.0686Z" fill="black"/>
<path d="M176.214 50.4006C176.214 50.4006 175.89 50.9978 176.219 51.5821C176.549 52.1665 176.223 52.8474 175.61 52.8474C174.463 52.8474 174.656 50.7192 176.214 50.4025V50.4006Z" fill="black"/>
<path d="M174.297 48.3379C174.297 48.3379 174.119 48.6656 174.301 48.986C174.481 49.3064 174.302 49.6796 173.966 49.6796C173.338 49.6796 173.443 48.5127 174.297 48.3379Z" fill="black"/>
<path d="M175.398 47.6332C175.398 47.6332 175.113 46.6666 175.398 46.1313C175.398 46.1313 174.432 46.8832 175.398 47.6332Z" fill="black"/>
</g>
<defs>
<clipPath id="clip0_1_170">
<rect width="178.005" height="54.9313" fill="white"/>
</clipPath>
</defs>
</svg>
