<svg width="403" height="125" viewBox="0 0 403 125" fill="none" xmlns="http://www.w3.org/2000/svg">
<g clip-path="url(#clip0_1_116)">
<path d="M61.1318 0.0288357L61.1606 0C27.3775 0 0 27.3775 0 61.1606C0 94.9437 23.9378 118.733 54.6643 121.967C46.1825 119.24 39.7727 114.849 38.0261 106.721C37.7295 105.296 37.2269 103.903 36.8974 102.478C36.0982 98.9766 34.6152 95.7758 31.8264 93.0447C31.1426 92.3609 30.5824 91.5617 29.9274 90.8491C25.3301 85.8646 24.1438 80.3487 26.4589 74.2973C27.258 72.2212 27.9418 70.145 28.6833 68.0688C29.9603 64.452 30.2569 60.8022 29.0994 57.1524C27.5876 52.4069 29.1571 48.3122 32.5102 44.6048C34.0509 42.8829 36.1271 41.4905 37.5812 39.7398C39.5091 37.3958 41.4081 34.9366 42.681 32.3249C44.0157 29.5978 45.5893 27.2539 48.0486 25.0871C50.7756 22.6855 52.8847 19.7484 55.2575 17.0502C55.6736 16.5764 56.0567 16.0697 56.4439 15.5672C56.621 15.6249 56.7693 15.6866 56.9465 15.7443C54.0382 23.6329 51.2205 31.5257 48.2257 39.3855C42.5904 54.1576 39.1219 69.1934 39.8633 84.7977C40.3371 95.1209 43.0064 105.057 48.8519 114.161C50.6891 117.036 53.2431 119.557 55.9125 122.111C57.6344 122.259 59.381 122.35 61.1318 122.35C62.8825 122.35 64.7815 122.259 66.59 122.111C76.0522 113.835 79.5207 103.335 81.4816 92.3897C84.4187 75.9863 81.1273 59.9989 75.7886 44.2793C72.732 35.2332 69.2635 26.2735 66.0009 17.2891C65.8238 16.7865 65.6755 16.251 65.4983 15.7484L65.7661 15.629C67.5745 17.8534 69.3252 20.1067 71.2531 22.2736C72.4972 23.6659 74.0996 24.7946 75.3478 26.187C76.5919 27.5505 78.0748 28.947 78.6392 30.5453C80.3281 35.262 83.4424 39.1177 87.5371 42.4998C90.8285 45.2268 93.1724 48.4317 93.5885 52.4069C93.7368 53.8322 93.6461 55.3152 93.263 56.6787C92.1343 60.6539 92.2826 64.5673 93.6791 68.4849C94.6883 71.3025 95.607 74.1779 96.4679 77.0285C97.6255 80.9131 96.884 84.5917 94.5112 88.0026C93.5308 89.3949 92.5545 90.8491 91.3063 92.0643C87.6895 95.5946 85.8481 99.7469 84.8718 104.287C84.3981 106.482 83.6854 108.645 82.7668 110.721C80.0068 117.007 73.8978 119.858 67.2243 122.053C98.1321 118.997 122.305 92.9252 122.305 61.1894C122.305 29.4536 94.9149 0.0288357 61.1318 0.0288357ZM65.5519 23.1345L67.1255 27.88C69.766 35.2084 72.5548 42.5039 74.837 49.9188C79.4342 64.8104 80.9749 79.908 77.6835 95.1827C76.2293 101.947 73.7989 108.443 69.4983 114.313C68.3119 115.944 66.9483 117.485 65.4365 118.91C61.7868 122.35 60.2173 122.264 56.481 118.671C55.0886 117.337 53.8116 115.883 52.6829 114.342C47.4348 107.075 44.8519 99.0055 43.6367 90.6143C41.0868 72.9668 44.4688 55.9413 50.9651 39.2125C52.8642 34.3186 55.9784 24.9759 57.0742 21.6227C57.0742 21.6227 59.2698 13.0791 61.0782 12.3376C61.0782 12.3376 62.7095 18.2695 64.5179 21.149C64.5756 21.2396 64.6374 21.3549 64.695 21.4456C64.901 21.7133 65.0823 22.0387 65.1688 22.393V22.4836C65.2594 22.7226 65.3459 22.9285 65.4365 23.1675L65.556 23.1386L65.5519 23.1345Z" fill="white"/>
<path d="M61.1606 39.3485C61.0988 39.2867 60.9752 39.2867 60.9464 39.3485C60.1513 40.3907 59.5375 41.0622 59.1709 41.7995C53.9969 52.4523 51.55 63.5005 53.3873 75.043C53.9393 78.3797 54.8249 81.6835 57.3378 84.4393C59.6034 86.9192 62.7548 87.0428 64.8062 84.4393C66.2439 82.635 67.4715 80.4888 68.0194 78.3797C71.4178 65.6137 68.6908 53.3709 62.9072 41.5235C62.5694 40.8521 61.9597 40.3001 61.1606 39.3485Z" fill="white"/>
<path d="M138.42 121.518V110.635H139.223L143.544 118.832L147.837 110.635H148.64V121.518H147.759V112.472L143.882 119.837H143.203L139.281 112.488V121.518H138.416H138.42ZM153.62 121.642C153.118 121.642 152.665 121.543 152.261 121.349C151.87 121.155 151.557 120.888 151.318 120.546C151.091 120.208 150.98 119.825 150.98 119.405C150.98 118.849 151.12 118.416 151.396 118.107C151.672 117.79 152.142 117.563 152.801 117.427C153.46 117.296 154.366 117.226 155.519 117.226H155.997V116.669C155.997 115.982 155.857 115.479 155.581 115.17C155.301 114.853 154.86 114.692 154.255 114.692C153.802 114.692 153.365 114.758 152.941 114.894C152.529 115.026 152.1 115.24 151.66 115.528L151.289 114.803C151.68 114.527 152.142 114.305 152.677 114.14C153.213 113.975 153.732 113.893 154.234 113.893C155.14 113.893 155.808 114.124 156.24 114.589C156.681 115.051 156.904 115.763 156.904 116.719V121.518H156.01V120.175C155.804 120.636 155.491 120.999 155.066 121.254C154.654 121.51 154.172 121.642 153.616 121.642H153.62ZM153.744 120.884C154.185 120.884 154.572 120.781 154.902 120.575C155.239 120.36 155.507 120.064 155.705 119.693C155.898 119.322 155.997 118.902 155.997 118.428V117.918H155.536C154.609 117.918 153.884 117.959 153.361 118.041C152.846 118.124 152.488 118.268 152.282 118.474C152.076 118.68 151.973 118.964 151.973 119.322C151.973 119.784 152.133 120.163 152.451 120.451C152.768 120.739 153.2 120.884 153.748 120.884H153.744ZM159.371 121.518V114.029H160.298V115.372C160.545 114.878 160.899 114.507 161.365 114.26C161.83 114.012 162.341 113.889 162.91 113.889C164.689 113.889 165.579 114.857 165.579 116.793V121.518H164.636V116.871C164.636 116.13 164.487 115.586 164.187 115.236C163.89 114.886 163.416 114.709 162.765 114.709C162.024 114.709 161.427 114.939 160.974 115.405C160.533 115.858 160.31 116.472 160.31 117.242V121.518H159.367H159.371ZM170.835 121.642C170.003 121.642 169.373 121.415 168.953 120.962C168.541 120.509 168.335 119.862 168.335 119.018V114.787H166.852V114.029H168.335V111.714H169.278V114.029H171.7V114.787H169.278V118.894C169.278 119.524 169.406 120.002 169.665 120.332C169.921 120.661 170.349 120.826 170.947 120.826C171.124 120.826 171.293 120.805 171.457 120.764C171.622 120.723 171.766 120.678 171.89 120.624L172.075 121.366C171.964 121.436 171.783 121.497 171.536 121.551C171.289 121.613 171.058 121.642 170.839 121.642H170.835ZM176.364 121.642C175.21 121.642 174.3 121.304 173.632 120.624C172.973 119.936 172.644 118.993 172.644 117.798C172.644 117.028 172.792 116.348 173.093 115.759C173.394 115.17 173.801 114.713 174.329 114.383C174.864 114.054 175.478 113.889 176.166 113.889C177.163 113.889 177.941 114.214 178.497 114.861C179.054 115.508 179.33 116.402 179.33 117.53V117.963H173.571C173.604 118.89 173.855 119.607 174.329 120.109C174.811 120.604 175.482 120.851 176.335 120.851C176.796 120.851 177.229 120.781 177.632 120.636C178.044 120.492 178.444 120.249 178.835 119.911L179.206 120.62C178.876 120.937 178.456 121.193 177.941 121.378C177.426 121.551 176.903 121.642 176.368 121.642H176.364ZM176.178 114.647C175.396 114.647 174.782 114.894 174.341 115.388C173.908 115.87 173.657 116.501 173.583 117.271H178.477C178.456 116.447 178.25 115.804 177.859 115.343C177.468 114.882 176.907 114.647 176.178 114.647ZM181.245 121.518V114.029H182.172V115.372C182.419 114.878 182.773 114.507 183.239 114.26C183.7 114.012 184.215 113.889 184.784 113.889C186.563 113.889 187.453 114.857 187.453 116.793V121.518H186.51V116.871C186.51 116.13 186.361 115.586 186.061 115.236C185.764 114.886 185.29 114.709 184.639 114.709C183.898 114.709 183.301 114.939 182.848 115.405C182.407 115.858 182.184 116.472 182.184 117.242V121.518H181.241H181.245ZM189.883 121.518V110.635H190.827V115.327C191.082 114.853 191.441 114.499 191.894 114.26C192.355 114.012 192.866 113.889 193.422 113.889C195.202 113.889 196.091 114.857 196.091 116.793V121.518H195.148V116.871C195.148 116.13 195 115.586 194.699 115.236C194.402 114.886 193.929 114.709 193.278 114.709C192.536 114.709 191.939 114.939 191.486 115.405C191.045 115.858 190.823 116.472 190.823 117.242V121.518H189.879H189.883ZM200.841 121.642C200.334 121.642 199.885 121.543 199.482 121.349C199.09 121.155 198.777 120.888 198.538 120.546C198.312 120.208 198.201 119.825 198.201 119.405C198.201 118.849 198.341 118.416 198.617 118.107C198.897 117.79 199.362 117.563 200.021 117.427C200.68 117.296 201.587 117.226 202.74 117.226H203.218V116.669C203.218 115.982 203.078 115.479 202.802 115.17C202.526 114.853 202.081 114.692 201.475 114.692C201.022 114.692 200.586 114.758 200.165 114.894C199.754 115.026 199.325 115.24 198.884 115.528L198.514 114.803C198.905 114.527 199.366 114.305 199.902 114.14C200.437 113.975 200.956 113.893 201.459 113.893C202.365 113.893 203.033 114.124 203.465 114.589C203.906 115.051 204.128 115.763 204.128 116.719V121.518H203.234V120.175C203.028 120.636 202.715 120.999 202.291 121.254C201.879 121.51 201.397 121.642 200.841 121.642ZM200.965 120.884C201.405 120.884 201.793 120.781 202.122 120.575C202.46 120.36 202.728 120.064 202.925 119.693C203.119 119.322 203.218 118.902 203.218 118.428V117.918H202.757C201.83 117.918 201.105 117.959 200.582 118.041C200.067 118.124 199.708 118.268 199.502 118.474C199.296 118.68 199.193 118.964 199.193 119.322C199.193 119.784 199.354 120.163 199.671 120.451C199.988 120.739 200.421 120.884 200.969 120.884H200.965ZM212.779 121.642C212.276 121.642 211.823 121.543 211.42 121.349C211.028 121.155 210.715 120.888 210.476 120.546C210.25 120.208 210.138 119.825 210.138 119.405C210.138 118.849 210.279 118.416 210.555 118.107C210.835 117.79 211.3 117.563 211.959 117.427C212.618 117.296 213.525 117.226 214.678 117.226H215.156V116.669C215.156 115.982 215.016 115.479 214.74 115.17C214.46 114.853 214.019 114.692 213.413 114.692C212.96 114.692 212.524 114.758 212.103 114.894C211.692 115.026 211.263 115.24 210.822 115.528L210.452 114.803C210.843 114.527 211.304 114.305 211.84 114.14C212.375 113.975 212.894 113.893 213.397 113.893C214.303 113.893 214.971 114.124 215.403 114.589C215.844 115.051 216.066 115.763 216.066 116.719V121.518H215.172V120.175C214.966 120.636 214.653 120.999 214.229 121.254C213.817 121.51 213.335 121.642 212.779 121.642ZM212.903 120.884C213.343 120.884 213.731 120.781 214.06 120.575C214.398 120.36 214.666 120.064 214.863 119.693C215.057 119.322 215.156 118.902 215.156 118.428V117.918H214.695C213.768 117.918 213.043 117.959 212.52 118.041C212.005 118.124 211.646 118.268 211.44 118.474C211.234 118.68 211.131 118.964 211.131 119.322C211.131 119.784 211.292 120.163 211.609 120.451C211.926 120.739 212.359 120.884 212.907 120.884H212.903ZM224.845 121.642C224.289 121.642 223.753 121.559 223.238 121.394C222.736 121.23 222.315 120.995 221.986 120.686L222.324 119.99C222.703 120.299 223.11 120.525 223.543 120.669C223.976 120.801 224.416 120.871 224.869 120.871C225.508 120.871 225.986 120.76 226.303 120.533C226.633 120.299 226.797 119.973 226.797 119.561C226.797 119.244 226.69 118.989 226.472 118.803C226.258 118.618 225.916 118.47 225.454 118.354L224.111 118.045C222.847 117.757 222.212 117.102 222.212 116.085C222.212 115.425 222.472 114.894 222.983 114.494C223.498 114.095 224.177 113.893 225.022 113.893C225.537 113.893 226.019 113.98 226.472 114.157C226.925 114.321 227.296 114.564 227.584 114.882L227.213 115.578C226.917 115.281 226.575 115.059 226.196 114.915C225.817 114.758 225.417 114.684 225.005 114.684C224.408 114.684 223.947 114.808 223.617 115.055C223.3 115.302 223.139 115.636 223.139 116.06C223.139 116.377 223.238 116.637 223.432 116.83C223.625 117.024 223.947 117.176 224.387 117.279L225.73 117.588C226.398 117.745 226.9 117.975 227.23 118.284C227.559 118.581 227.724 118.989 227.724 119.504C227.724 120.171 227.461 120.698 226.937 121.077C226.41 121.46 225.714 121.65 224.836 121.65L224.845 121.642ZM232.416 121.642C230.637 121.642 229.747 120.674 229.747 118.737V114.029H230.69V118.692C230.69 119.421 230.838 119.965 231.139 120.315C231.436 120.665 231.905 120.838 232.544 120.838C233.232 120.838 233.796 120.608 234.229 120.142C234.669 119.681 234.892 119.063 234.892 118.288V114.029H235.835V121.518H234.925V120.192C234.678 120.665 234.332 121.024 233.891 121.271C233.458 121.518 232.968 121.642 232.424 121.642H232.416ZM240.626 121.642C240.124 121.642 239.67 121.543 239.267 121.349C238.875 121.155 238.562 120.888 238.323 120.546C238.097 120.208 237.986 119.825 237.986 119.405C237.986 118.849 238.126 118.416 238.402 118.107C238.682 117.79 239.147 117.563 239.806 117.427C240.465 117.296 241.372 117.226 242.525 117.226H243.003V116.669C243.003 115.982 242.863 115.479 242.587 115.17C242.307 114.853 241.866 114.692 241.26 114.692C240.807 114.692 240.371 114.758 239.951 114.894C239.539 115.026 239.11 115.24 238.669 115.528L238.299 114.803C238.69 114.527 239.151 114.305 239.687 114.14C240.222 113.975 240.741 113.893 241.244 113.893C242.15 113.893 242.818 114.124 243.25 114.589C243.691 115.051 243.913 115.763 243.913 116.719V121.518H243.019V120.175C242.814 120.636 242.5 120.999 242.076 121.254C241.664 121.51 241.182 121.642 240.626 121.642ZM240.75 120.884C241.19 120.884 241.578 120.781 241.907 120.575C242.245 120.36 242.513 120.064 242.711 119.693C242.904 119.322 243.003 118.902 243.003 118.428V117.918H242.542C241.615 117.918 240.89 117.959 240.367 118.041C239.852 118.124 239.493 118.268 239.287 118.474C239.081 118.68 238.978 118.964 238.978 119.322C238.978 119.784 239.139 120.163 239.456 120.451C239.773 120.739 240.206 120.884 240.754 120.884H240.75ZM253.31 121.642C252.581 121.642 251.95 121.481 251.427 121.164C250.904 120.834 250.496 120.377 250.208 119.788C249.928 119.191 249.792 118.503 249.792 117.72C249.792 116.538 250.101 115.603 250.719 114.927C251.349 114.239 252.21 113.893 253.314 113.893C253.767 113.893 254.216 113.98 254.657 114.157C255.098 114.334 255.468 114.573 255.769 114.882L255.398 115.59C255.081 115.281 254.739 115.059 254.381 114.927C254.022 114.783 253.676 114.713 253.347 114.713C252.515 114.713 251.872 114.976 251.419 115.5C250.978 116.027 250.756 116.772 250.756 117.741C250.756 118.709 250.978 119.471 251.419 120.027C251.872 120.571 252.515 120.847 253.347 120.847C253.676 120.847 254.022 120.781 254.381 120.645C254.739 120.501 255.081 120.274 255.398 119.965L255.769 120.674C255.472 120.97 255.093 121.209 254.64 121.382C254.2 121.555 253.755 121.646 253.314 121.646L253.31 121.642ZM257.338 121.518V110.635H258.282V115.327C258.541 114.853 258.896 114.499 259.349 114.26C259.81 114.012 260.321 113.889 260.877 113.889C262.657 113.889 263.546 114.857 263.546 116.793V121.518H262.603V116.871C262.603 116.13 262.455 115.586 262.154 115.236C261.857 114.886 261.384 114.709 260.733 114.709C259.991 114.709 259.394 114.939 258.941 115.405C258.5 115.858 258.278 116.472 258.278 117.242V121.518H257.334H257.338ZM268.292 121.642C267.789 121.642 267.336 121.543 266.933 121.349C266.541 121.155 266.228 120.888 265.989 120.546C265.763 120.208 265.651 119.825 265.651 119.405C265.651 118.849 265.791 118.416 266.067 118.107C266.343 117.79 266.813 117.563 267.472 117.427C268.131 117.296 269.038 117.226 270.191 117.226H270.669V116.669C270.669 115.982 270.529 115.479 270.253 115.17C269.977 114.853 269.532 114.692 268.926 114.692C268.473 114.692 268.037 114.758 267.612 114.894C267.2 115.026 266.772 115.24 266.331 115.528L265.96 114.803C266.352 114.527 266.813 114.305 267.349 114.14C267.884 113.975 268.403 113.893 268.906 113.893C269.812 113.893 270.479 114.124 270.912 114.589C271.353 115.051 271.575 115.763 271.575 116.719V121.518H270.681V120.175C270.475 120.636 270.162 120.999 269.738 121.254C269.326 121.51 268.844 121.642 268.288 121.642H268.292ZM268.416 120.884C268.856 120.884 269.244 120.781 269.573 120.575C269.911 120.36 270.179 120.064 270.376 119.693C270.57 119.322 270.669 118.902 270.669 118.428V117.918H270.207C269.281 117.918 268.556 117.959 268.032 118.041C267.517 118.124 267.159 118.268 266.953 118.474C266.747 118.68 266.644 118.964 266.644 119.322C266.644 119.784 266.805 120.163 267.122 120.451C267.439 120.739 267.872 120.884 268.42 120.884H268.416ZM274.071 121.518V114.029H274.998V115.343C275.46 114.375 276.251 113.893 277.363 113.893C278.557 113.893 279.311 114.412 279.633 115.454C279.847 114.972 280.176 114.589 280.621 114.313C281.062 114.033 281.577 113.897 282.166 113.897C283.822 113.897 284.65 114.865 284.65 116.801V121.526H283.707V116.88C283.707 116.138 283.571 115.594 283.303 115.244C283.048 114.894 282.607 114.717 281.993 114.717C281.334 114.717 280.811 114.948 280.419 115.413C280.028 115.866 279.834 116.484 279.834 117.267V121.526H278.891V116.88C278.891 116.138 278.759 115.594 278.492 115.244C278.232 114.894 277.804 114.717 277.194 114.717C276.527 114.717 275.995 114.948 275.604 115.413C275.213 115.866 275.019 116.484 275.019 117.267V121.526H274.076L274.071 121.518ZM289.429 121.642C288.926 121.642 288.473 121.543 288.069 121.349C287.678 121.155 287.365 120.888 287.126 120.546C286.899 120.208 286.788 119.825 286.788 119.405C286.788 118.849 286.928 118.416 287.204 118.107C287.484 117.79 287.95 117.563 288.609 117.427C289.268 117.296 290.174 117.226 291.328 117.226H291.805V116.669C291.805 115.982 291.665 115.479 291.389 115.17C291.113 114.853 290.668 114.692 290.063 114.692C289.61 114.692 289.173 114.758 288.749 114.894C288.337 115.026 287.908 115.24 287.468 115.528L287.097 114.803C287.488 114.527 287.95 114.305 288.485 114.14C289.021 113.975 289.54 113.893 290.042 113.893C290.949 113.893 291.616 114.124 292.048 114.589C292.489 115.051 292.712 115.763 292.712 116.719V121.518H291.818V120.175C291.612 120.636 291.299 120.999 290.874 121.254C290.462 121.51 289.981 121.642 289.424 121.642H289.429ZM289.552 120.884C289.993 120.884 290.38 120.781 290.71 120.575C291.047 120.36 291.315 120.064 291.513 119.693C291.707 119.322 291.805 118.902 291.805 118.428V117.918H291.344C290.417 117.918 289.692 117.959 289.169 118.041C288.654 118.124 288.296 118.268 288.09 118.474C287.884 118.68 287.781 118.964 287.781 119.322C287.781 119.784 287.941 120.163 288.259 120.451C288.576 120.739 289.008 120.884 289.556 120.884H289.552ZM301.494 121.642C300.938 121.642 300.403 121.559 299.888 121.394C299.385 121.23 298.965 120.995 298.635 120.686L298.973 119.99C299.352 120.299 299.76 120.525 300.193 120.669C300.625 120.801 301.066 120.871 301.519 120.871C302.157 120.871 302.635 120.76 302.957 120.533C303.286 120.299 303.451 119.973 303.451 119.561C303.451 119.244 303.344 118.989 303.126 118.803C302.911 118.618 302.569 118.47 302.108 118.354L300.765 118.045C299.5 117.757 298.866 117.102 298.866 116.085C298.866 115.425 299.121 114.894 299.636 114.494C300.151 114.095 300.831 113.893 301.675 113.893C302.19 113.893 302.672 113.98 303.126 114.157C303.579 114.321 303.949 114.564 304.238 114.882L303.867 115.578C303.57 115.281 303.229 115.059 302.85 114.915C302.466 114.758 302.071 114.684 301.659 114.684C301.062 114.684 300.6 114.808 300.271 115.055C299.954 115.302 299.793 115.636 299.793 116.06C299.793 116.377 299.892 116.637 300.085 116.83C300.279 117.024 300.6 117.176 301.041 117.279L302.384 117.588C303.051 117.745 303.554 117.975 303.883 118.284C304.213 118.581 304.378 118.989 304.378 119.504C304.378 120.171 304.114 120.698 303.591 121.077C303.068 121.46 302.368 121.65 301.49 121.65L301.494 121.642ZM309.684 121.642C308.53 121.642 307.62 121.304 306.952 120.624C306.293 119.936 305.964 118.993 305.964 117.798C305.964 117.028 306.112 116.348 306.413 115.759C306.709 115.174 307.121 114.713 307.649 114.383C308.184 114.054 308.798 113.889 309.486 113.889C310.483 113.889 311.261 114.214 311.817 114.861C312.374 115.508 312.65 116.402 312.65 117.53V117.963H306.891C306.924 118.89 307.175 119.607 307.649 120.109C308.131 120.604 308.802 120.851 309.655 120.851C310.116 120.851 310.549 120.781 310.952 120.636C311.364 120.492 311.764 120.249 312.155 119.911L312.526 120.62C312.196 120.937 311.776 121.193 311.261 121.378C310.746 121.551 310.223 121.642 309.688 121.642H309.684ZM309.498 114.647C308.716 114.647 308.102 114.894 307.661 115.388C307.228 115.87 306.977 116.501 306.903 117.271H311.797C311.776 116.447 311.57 115.804 311.179 115.343C310.788 114.882 310.227 114.647 309.498 114.647ZM314.598 121.518V114.029H315.525V115.343C315.986 114.375 316.777 113.893 317.885 113.893C319.08 113.893 319.834 114.412 320.155 115.454C320.369 114.972 320.699 114.589 321.144 114.313C321.585 114.033 322.099 113.897 322.689 113.897C324.345 113.897 325.173 114.865 325.173 116.801V121.526H324.229V116.88C324.229 116.138 324.097 115.594 323.83 115.244C323.57 114.894 323.133 114.717 322.515 114.717C321.856 114.717 321.333 114.948 320.942 115.413C320.551 115.866 320.357 116.484 320.357 117.267V121.526H319.414V116.88C319.414 116.138 319.278 115.594 319.01 115.244C318.754 114.894 318.322 114.717 317.712 114.717C317.045 114.717 316.514 114.948 316.122 115.413C315.731 115.866 315.537 116.484 315.537 117.267V121.526H314.594L314.598 121.518ZM327.64 124.299V114.033H328.583V115.438C328.81 114.964 329.148 114.589 329.601 114.309C330.062 114.029 330.598 113.893 331.207 113.893C331.875 113.893 332.46 114.054 332.954 114.371C333.457 114.688 333.844 115.137 334.112 115.714C334.388 116.291 334.528 116.974 334.528 117.765C334.528 118.556 334.388 119.248 334.112 119.833C333.844 120.41 333.457 120.859 332.954 121.176C332.46 121.485 331.879 121.637 331.207 121.637C330.602 121.637 330.066 121.506 329.601 121.238C329.148 120.97 328.81 120.599 328.583 120.126V124.294H327.64V124.299ZM331.067 120.855C331.829 120.855 332.435 120.587 332.888 120.052C333.341 119.508 333.568 118.746 333.568 117.765C333.568 116.785 333.341 116.031 332.888 115.495C332.435 114.96 331.829 114.692 331.067 114.692C330.305 114.692 329.7 114.96 329.247 115.495C328.793 116.031 328.567 116.789 328.567 117.765C328.567 118.742 328.793 119.504 329.247 120.052C329.7 120.587 330.305 120.855 331.067 120.855ZM336.517 121.518V114.029H337.444V115.388C337.658 114.915 337.976 114.556 338.388 114.309C338.799 114.062 339.323 113.918 339.961 113.877L340.348 113.844L340.439 114.663L339.776 114.742C339.047 114.803 338.478 115.046 338.079 115.467C337.679 115.879 337.477 116.435 337.477 117.135V121.518H336.521H336.517ZM344.962 121.642C343.809 121.642 342.898 121.304 342.231 120.624C341.572 119.936 341.242 118.993 341.242 117.798C341.242 117.028 341.391 116.348 341.691 115.759C341.988 115.174 342.4 114.713 342.927 114.383C343.463 114.054 344.076 113.889 344.764 113.889C345.761 113.889 346.54 114.214 347.096 114.861C347.652 115.508 347.928 116.402 347.928 117.53V117.963H342.169C342.202 118.89 342.453 119.607 342.927 120.109C343.409 120.604 344.081 120.851 344.933 120.851C345.395 120.851 345.827 120.781 346.231 120.636C346.643 120.492 347.042 120.249 347.434 119.911L347.804 120.62C347.475 120.937 347.055 121.193 346.54 121.378C346.025 121.551 345.502 121.642 344.966 121.642H344.962ZM344.777 114.647C343.994 114.647 343.38 114.894 342.939 115.388C342.507 115.87 342.256 116.501 342.181 117.271H347.075C347.055 116.447 346.849 115.804 346.457 115.343C346.066 114.882 345.506 114.647 344.773 114.647H344.777ZM356.035 121.642C355.532 121.642 355.079 121.543 354.676 121.349C354.284 121.155 353.971 120.888 353.732 120.546C353.506 120.208 353.394 119.825 353.394 119.405C353.394 118.849 353.535 118.416 353.811 118.107C354.091 117.79 354.556 117.563 355.215 117.427C355.874 117.296 356.781 117.226 357.934 117.226H358.412V116.669C358.412 115.982 358.272 115.479 357.996 115.17C357.72 114.853 357.275 114.692 356.669 114.692C356.216 114.692 355.78 114.758 355.355 114.894C354.943 115.026 354.515 115.24 354.074 115.528L353.703 114.803C354.095 114.527 354.556 114.305 355.092 114.14C355.627 113.975 356.146 113.893 356.649 113.893C357.555 113.893 358.222 114.124 358.655 114.589C359.096 115.051 359.318 115.763 359.318 116.719V121.518H358.424V120.175C358.218 120.636 357.905 120.999 357.481 121.254C357.069 121.51 356.587 121.642 356.031 121.642H356.035ZM356.159 120.884C356.599 120.884 356.987 120.781 357.316 120.575C357.654 120.36 357.922 120.064 358.119 119.693C358.313 119.322 358.412 118.902 358.412 118.428V117.918H357.951C357.024 117.918 356.299 117.959 355.775 118.041C355.261 118.124 354.902 118.268 354.696 118.474C354.49 118.68 354.387 118.964 354.387 119.322C354.387 119.784 354.548 120.163 354.865 120.451C355.182 120.739 355.615 120.884 356.163 120.884H356.159ZM364.842 121.642C364.113 121.642 363.483 121.481 362.96 121.164C362.437 120.834 362.029 120.377 361.74 119.788C361.464 119.191 361.324 118.503 361.324 117.72C361.324 116.538 361.633 115.603 362.251 114.927C362.877 114.239 363.742 113.893 364.846 113.893C365.299 113.893 365.749 113.98 366.189 114.157C366.63 114.33 367.001 114.573 367.302 114.882L366.931 115.59C366.614 115.281 366.272 115.059 365.913 114.927C365.555 114.783 365.209 114.713 364.879 114.713C364.047 114.713 363.4 114.976 362.951 115.5C362.511 116.027 362.288 116.772 362.288 117.741C362.288 118.709 362.511 119.471 362.951 120.027C363.405 120.571 364.047 120.847 364.879 120.847C365.209 120.847 365.555 120.781 365.913 120.645C366.276 120.501 366.614 120.274 366.931 119.965L367.302 120.674C367.005 120.97 366.626 121.209 366.173 121.382C365.732 121.555 365.287 121.646 364.846 121.646L364.842 121.642ZM371.981 121.642C370.828 121.642 369.917 121.304 369.25 120.624C368.591 119.936 368.261 118.993 368.261 117.798C368.261 117.028 368.41 116.348 368.71 115.759C369.011 115.17 369.419 114.713 369.946 114.383C370.482 114.054 371.095 113.889 371.783 113.889C372.78 113.889 373.559 114.214 374.115 114.861C374.671 115.508 374.947 116.402 374.947 117.53V117.963H369.188C369.221 118.89 369.472 119.607 369.946 120.109C370.428 120.604 371.1 120.851 371.952 120.851C372.414 120.851 372.846 120.781 373.25 120.636C373.662 120.492 374.061 120.249 374.453 119.911L374.824 120.62C374.494 120.937 374.074 121.193 373.559 121.378C373.044 121.551 372.521 121.642 371.985 121.642H371.981ZM371.796 114.647C371.013 114.647 370.399 114.894 369.959 115.388C369.526 115.87 369.275 116.501 369.201 117.271H374.094C374.074 116.447 373.868 115.804 373.476 115.343C373.085 114.882 372.525 114.647 371.796 114.647ZM379.301 121.642C378.745 121.642 378.21 121.559 377.695 121.394C377.188 121.23 376.772 120.995 376.442 120.686L376.78 119.99C377.159 120.299 377.567 120.525 378 120.669C378.432 120.801 378.873 120.871 379.326 120.871C379.965 120.871 380.442 120.76 380.764 120.533C381.093 120.299 381.258 119.973 381.258 119.561C381.258 119.244 381.151 118.989 380.933 118.803C380.718 118.618 380.376 118.47 379.915 118.354L378.572 118.045C377.308 117.757 376.673 117.102 376.673 116.085C376.673 115.425 376.929 114.894 377.443 114.494C377.958 114.095 378.638 113.893 379.483 113.893C379.997 113.893 380.479 113.98 380.933 114.157C381.386 114.321 381.756 114.564 382.045 114.882L381.674 115.578C381.377 115.281 381.036 115.059 380.657 114.915C380.278 114.758 379.878 114.684 379.466 114.684C378.869 114.684 378.407 114.808 378.078 115.055C377.761 115.302 377.6 115.636 377.6 116.06C377.6 116.377 377.699 116.637 377.892 116.83C378.086 117.024 378.407 117.176 378.848 117.279L380.191 117.588C380.858 117.745 381.361 117.975 381.686 118.284C382.016 118.581 382.181 118.989 382.181 119.504C382.181 120.171 381.917 120.698 381.394 121.077C380.871 121.46 380.17 121.65 379.293 121.65L379.301 121.642ZM386.551 121.642C386.049 121.642 385.596 121.543 385.192 121.349C384.801 121.155 384.488 120.888 384.249 120.546C384.022 120.208 383.911 119.825 383.911 119.405C383.911 118.849 384.051 118.416 384.327 118.107C384.607 117.79 385.073 117.563 385.732 117.427C386.391 117.296 387.297 117.226 388.45 117.226H388.928V116.669C388.928 115.982 388.788 115.479 388.512 115.17C388.232 114.853 387.791 114.692 387.186 114.692C386.733 114.692 386.296 114.758 385.876 114.894C385.464 115.026 385.035 115.24 384.595 115.528L384.224 114.803C384.615 114.527 385.077 114.305 385.612 114.14C386.148 113.975 386.667 113.893 387.169 113.893C388.076 113.893 388.743 114.124 389.175 114.589C389.616 115.051 389.839 115.763 389.839 116.719V121.518H388.945V120.175C388.739 120.636 388.426 120.999 388.001 121.254C387.59 121.51 387.108 121.642 386.551 121.642ZM386.675 120.884C387.116 120.884 387.503 120.781 387.833 120.575C388.17 120.36 388.438 120.064 388.636 119.693C388.829 119.322 388.928 118.902 388.928 118.428V117.918H388.467C387.54 117.918 386.815 117.959 386.292 118.041C385.777 118.124 385.419 118.268 385.213 118.474C385.007 118.68 384.904 118.964 384.904 119.322C384.904 119.784 385.064 120.163 385.382 120.451C385.699 120.739 386.131 120.884 386.679 120.884H386.675Z" fill="white"/>
<path d="M169.377 5.05452C167.313 2.3522 164.537 1.00104 161.048 1.00104H138.42V44.8561H150.951V1.44181C153.604 1.44181 155.791 2.79297 157.509 5.49529C159.227 8.19761 160.088 11.6126 160.088 15.7402C160.088 19.5259 159.313 22.8421 157.769 25.6927C156.22 28.5433 154.218 30.3105 151.763 30.9984V31.4433H161.344C164.636 31.4433 167.313 29.9933 169.377 27.0933C171.441 24.1932 172.475 20.461 172.475 15.8885C172.475 11.316 171.441 7.75684 169.377 5.05452Z" fill="white"/>
<path d="M180.874 44.8561H203.869C205.64 37.3382 206.522 31.1468 206.522 26.2818C206.522 21.9564 205.896 18.7515 204.643 16.663C203.391 14.5745 201.463 13.5323 198.86 13.5323H175.861C174.094 21.149 173.208 27.3405 173.208 32.1066C173.208 40.609 175.762 44.8561 180.874 44.8561ZM188.392 13.973C190.11 14.2696 191.474 15.4725 192.483 17.5858C193.488 19.699 193.995 22.5249 193.995 26.0593C193.995 30.8255 193.109 36.9428 191.342 44.4112C189.575 44.1146 188.199 42.9241 187.214 40.8356C186.23 38.7471 185.739 35.9582 185.739 32.4691C185.739 27.8018 186.625 21.6351 188.392 13.9689V13.973Z" fill="white"/>
<path d="M221.335 13.973C222.563 14.4633 223.411 15.3366 223.877 16.5889C224.342 17.8412 224.577 19.5507 224.577 21.7093V44.9262H237.108V21.6351C237.108 19.7196 236.923 18.1213 236.556 16.8443C236.186 15.5673 235.436 14.6074 234.307 13.9689C236.47 14.1667 237.994 14.9164 238.876 16.2181C239.761 17.5198 240.202 19.3489 240.202 21.7093V44.852H252.733V22.8874C252.733 20.0368 252.218 17.767 251.184 16.0698C250.15 14.3726 248.185 13.5282 245.289 13.5282H208.804V44.852H221.335V13.973Z" fill="white"/>
<path d="M268.358 13.973C270.862 16.4776 272.889 19.3406 274.438 22.5579C275.987 25.7751 276.757 29.0583 276.757 32.3991C276.757 35.3486 276.082 38.088 274.731 40.6173C273.379 43.1466 271.377 44.4112 268.724 44.4112V44.852H280.737C283.538 44.852 285.651 43.5626 287.076 40.9839C288.502 38.4052 289.214 35.5916 289.214 32.5433C289.214 25.7627 286.388 19.423 280.737 13.5282H255.827V57.309H268.358V13.973Z" fill="white"/>
<path d="M298.355 44.8561H321.35C323.121 37.3382 324.003 31.1468 324.003 26.2818C324.003 21.9564 323.377 18.7515 322.124 16.663C320.872 14.5745 318.944 13.5323 316.341 13.5323H293.346C291.579 21.149 290.693 27.3405 290.693 32.1066C290.693 40.609 293.247 44.8561 298.36 44.8561H298.355ZM305.873 13.973C307.591 14.2696 308.955 15.4725 309.964 17.5858C310.969 19.699 311.476 22.5249 311.476 26.0593C311.476 30.8255 310.59 36.9428 308.823 44.4112C307.056 44.1146 305.68 42.9241 304.695 40.8356C303.711 38.7471 303.22 35.9582 303.22 32.4691C303.22 27.8018 304.106 21.6351 305.873 13.9689V13.973Z" fill="white"/>
<path d="M150.951 52.1846H138.42V96.0396H150.951V52.1846Z" fill="white"/>
<path d="M166.65 52.1846H154.119V62.1329H166.65V52.1846Z" fill="white"/>
<path d="M166.65 64.7157H154.119V96.1137H166.65V64.7157Z" fill="white"/>
<path d="M206.299 64.7157H169.814V96.0396H182.345V65.1565C183.572 65.6467 184.421 66.52 184.887 67.7723C185.352 69.0246 185.587 70.7341 185.587 72.8927V96.1096H198.118V72.8185C198.118 70.903 197.933 69.3047 197.566 68.0277C197.195 66.7507 196.446 65.7909 195.317 65.1524C197.48 65.3501 199.004 66.0998 199.885 67.4015C200.771 68.7033 201.212 70.5323 201.212 72.8927V96.0354H213.743V74.0708C213.743 71.2202 213.228 68.9504 212.194 67.2532C211.16 65.5561 209.195 64.7116 206.299 64.7116V64.7157Z" fill="white"/>
<path d="M216.841 64.7157V108.497H229.372V65.1606C231.877 67.6652 233.903 70.5282 235.452 73.7454C237.001 76.9627 237.771 80.2458 237.771 83.5866C237.771 86.5361 237.096 89.2755 235.745 91.8048C234.394 94.3341 232.392 95.5988 229.739 95.5988V96.0396H241.751C244.552 96.0396 246.665 94.7502 248.091 92.1715C249.516 89.5927 250.228 86.7792 250.228 83.7308C250.228 76.9503 247.403 70.6106 241.751 64.7157H216.841Z" fill="white"/>
<path d="M265.042 64.7157H252.51V96.1137H265.042V64.7157Z" fill="white"/>
<path d="M294.19 71.0884C292.151 67.4757 289.363 65.3542 285.824 64.7116H271.085V65.1524C275.361 65.1524 278.677 66.7507 281.033 69.9432C283.389 73.1399 285 76.9091 285.861 81.2592C286.722 85.6051 287.274 90.3877 287.521 95.5947C285.111 95.5947 283.258 95.0303 281.956 93.8975C280.654 92.7688 280.003 91.121 280.003 88.9583C280.003 85.5186 281.404 81.5393 284.205 77.0162H271.748C270.471 78.7381 269.429 80.6783 268.617 82.841C267.806 85.0037 267.402 86.9687 267.402 88.7359C267.402 90.9974 268.127 92.777 269.577 94.0787C271.027 95.3805 273.054 96.0313 275.657 96.0313H300.052C299.805 91.7059 299.278 87.3723 298.466 83.0223C297.655 78.6722 296.23 74.6929 294.19 71.0802V71.0884Z" fill="white"/>
<path d="M322.676 95.5988C319.826 95.5988 317.675 94.3589 316.229 91.8749C314.779 89.395 314.054 86.6309 314.054 83.5826C314.054 80.2417 314.816 76.8762 316.341 73.4859C317.865 70.0957 319.854 67.175 322.31 64.7157H309.778C304.275 70.4623 301.523 76.7279 301.523 83.5084C301.523 86.6062 302.211 89.4403 303.587 92.0232C304.963 94.6019 307.051 95.9407 309.853 96.0396H335.207V52.1846H322.676V95.5947V95.5988Z" fill="white"/>
<path d="M364.282 71.0884C362.243 67.4757 359.454 65.3542 355.916 64.7116H341.176V65.1524C345.452 65.1524 348.768 66.7507 351.125 69.9432C353.481 73.1399 355.092 76.9091 355.953 81.2592C356.814 85.6051 357.366 90.3877 357.613 95.5947C355.203 95.5947 353.349 95.0303 352.047 93.8975C350.746 92.7688 350.095 91.121 350.095 88.9583C350.095 85.5186 351.495 81.5393 354.297 77.0162H341.84C340.563 78.7381 339.516 80.6783 338.709 82.841C337.897 85.0037 337.494 86.9687 337.494 88.7359C337.494 90.9974 338.219 92.777 339.669 94.0787C341.119 95.3805 343.145 96.0313 345.749 96.0313H370.144C369.897 91.7059 369.369 87.3723 368.558 83.0223C367.746 78.6722 366.321 74.6929 364.282 71.0802V71.0884Z" fill="white"/>
<path d="M402.79 78.2767V72.5261C402.79 67.3192 400.405 64.7116 395.643 64.7116H372.5V73.7042C372.599 78.2273 374.832 80.4847 379.207 80.4847H383.923C386.234 80.4847 387.866 80.9997 388.825 82.0336C389.781 83.0635 390.263 84.7854 390.263 87.1911V95.5947C388.298 95.5947 386.922 95.0921 386.135 94.0828C385.349 93.0777 384.957 91.4176 384.957 89.1066V82.4744H372.426V88.5917C372.426 91.0015 372.978 92.8429 374.086 94.1199C375.19 95.3969 376.801 96.0354 378.914 96.0354H402.794V87.4877C402.794 82.6227 400.384 80.1881 395.573 80.1881H391.149C388.937 80.1881 387.363 79.6732 386.432 78.6392C385.497 77.6094 385.031 75.9122 385.031 73.5559V65.1524C386.996 65.1524 388.36 65.7044 389.122 66.8125C389.884 67.9165 390.263 69.799 390.263 72.4519V78.2767H402.794H402.79Z" fill="white"/>
<path d="M258.624 63.8836L262.352 58.1412H258.092L256.609 63.8836H258.624Z" fill="white"/>
<path d="M129.695 1.00104V121.518" stroke="white" stroke-width="0.411939" stroke-linecap="round" stroke-linejoin="round"/>
<path d="M395.565 108.768C395.565 108.768 398.696 111.314 395.4 113.477C391.095 116.303 392.97 121.642 396.899 121.642C400.829 121.642 402.613 117.448 401.521 114.058C400.673 111.417 398.967 109.901 395.565 108.768Z" fill="white"/>
<path d="M398.737 114.045C398.737 114.045 398.003 115.396 398.749 116.719C399.495 118.041 398.757 119.582 397.369 119.582C394.774 119.582 395.211 114.766 398.737 114.049V114.045Z" fill="white"/>
<path d="M394.399 109.378C394.399 109.378 393.995 110.12 394.407 110.845C394.815 111.57 394.411 112.414 393.649 112.414C392.228 112.414 392.467 109.774 394.399 109.378Z" fill="white"/>
<path d="M396.891 107.784C396.891 107.784 396.244 105.596 396.891 104.385C396.891 104.385 394.704 106.087 396.891 107.784Z" fill="white"/>
</g>
<defs>
<clipPath id="clip0_1_116">
<rect width="402.79" height="124.299" fill="white"/>
</clipPath>
</defs>
</svg>
