<svg width="17" height="232" viewBox="0 0 17 232" fill="none" xmlns="http://www.w3.org/2000/svg">
<path d="M0.143555 128.016C0.143654 127.685 0.30156 127.345 0.633789 127.079L6.84277 122.12L6.84668 122.122L6.93652 122.051C7.60963 121.513 8.70969 121.513 9.38281 122.051L15.6826 127.082C16.0113 127.345 16.1709 127.687 16.1709 128.018C16.1708 128.348 16.0144 128.687 15.6826 128.952C15.0096 129.49 13.9095 129.49 13.2363 128.952L8.24707 124.968L8.1582 124.897L8.06836 124.968L3.08008 128.952C2.40696 129.49 1.30691 129.49 0.633789 128.952C0.301455 128.687 0.143555 128.347 0.143555 128.016Z" fill="white" stroke="white" stroke-width="0.286864"/>
<path d="M0.143555 122.012C0.143654 121.681 0.30156 121.341 0.633789 121.075L6.89258 116.075L6.89746 116.075L6.93652 116.044C7.60962 115.506 8.7097 115.506 9.38281 116.044L15.6816 121.075C16.0109 121.341 16.1709 121.683 16.1709 122.014C16.1708 122.344 16.0144 122.683 15.6826 122.948C15.0096 123.486 13.9095 123.486 13.2363 122.948L8.24707 118.964L8.1582 118.893L8.06836 118.964L3.08008 122.948C2.40696 123.486 1.30691 123.486 0.633789 122.948C0.301455 122.683 0.143555 122.343 0.143555 122.012Z" fill="white" stroke="white" stroke-width="0.286864"/>
<path d="M0.143555 115.322C0.143654 114.991 0.30156 114.651 0.633789 114.386L6.84277 109.427L6.84668 109.429L6.93652 109.357C7.60963 108.82 8.70969 108.82 9.38281 109.357L15.6826 114.389C16.0113 114.651 16.1709 114.994 16.1709 115.324C16.1708 115.655 16.0144 115.994 15.6826 116.259C15.0096 116.796 13.9095 116.796 13.2363 116.259L8.24707 112.274L8.1582 112.203L8.06836 112.274L3.08008 116.259C2.40696 116.796 1.30691 116.796 0.633789 116.259C0.301455 115.993 0.143555 115.654 0.143555 115.322Z" fill="white" stroke="white" stroke-width="0.286864"/>
<path d="M0.143555 109.318C0.143654 108.987 0.30156 108.647 0.633789 108.382L6.89258 103.382L6.89746 103.382L6.93652 103.35C7.60962 102.813 8.7097 102.813 9.38281 103.35L15.6816 108.382C16.0109 108.647 16.1709 108.99 16.1709 109.32C16.1708 109.651 16.0144 109.989 15.6826 110.255C15.0096 110.792 13.9095 110.792 13.2363 110.255L8.24707 106.27L8.1582 106.199L8.06836 106.27L3.08008 110.255C2.40696 110.792 1.30691 110.792 0.633789 110.255C0.301455 109.989 0.143555 109.649 0.143555 109.318Z" fill="white" stroke="white" stroke-width="0.286864"/>
<path d="M8.25854 98.2727L8.25855 1.3128" stroke="white" stroke-width="1.41447" stroke-linecap="round" stroke-linejoin="round"/>
<path d="M8.25854 230.804L8.25855 134.131" stroke="white" stroke-width="1.41447" stroke-linecap="round" stroke-linejoin="round"/>
</svg>
